G04 Layer: TopLayer*
G04 EasyEDA v6.5.50, 2025-08-07 17:35:19*
G04 907c9f2fc05643d1a7414bf7d8136ec9,1ea6220676e248c9a5f209c00a71ac29,10*
G04 Gerber Generator version 0.2*
G04 Scale: 100 percent, Rotated: No, Reflected: No *
G04 Dimensions in millimeters *
G04 leading zeros omitted , absolute positions ,4 integer and 5 decimal *
%FSLAX45Y45*%
%MOMM*%

%ADD10C,0.4000*%
%ADD11C,0.5000*%
%ADD12C,1.7500*%
%ADD13C,1.5240*%
%ADD14R,1.6002X1.6002*%
%ADD15C,1.6002*%
%ADD16C,0.0183*%

%LPD*%
D10*
X3809997Y7873987D02*
G01*
X4343397Y7873987D01*
X4575121Y8105706D01*
X3708397Y5613387D02*
G01*
X2916605Y5613387D01*
X292102Y6362687D02*
G01*
X1574802Y6363698D01*
X292102Y6616687D02*
G01*
X1574802Y6617698D01*
X1447802Y7315187D02*
G01*
X1447802Y6744698D01*
X1574802Y6617698D01*
D11*
X2349500Y8166084D02*
G01*
X2603497Y8166084D01*
X2857497Y7912084D01*
X2349573Y7911033D02*
G01*
X2604549Y7911033D01*
X2857497Y7658084D01*
X2349500Y7658084D02*
G01*
X2603500Y7658084D01*
X2857497Y7404087D01*
X2349500Y7404087D02*
G01*
X2603497Y7404087D01*
X2857497Y7150087D01*
X2349500Y7150087D02*
G01*
X2603500Y7150087D01*
X2857500Y6896087D01*
X2349500Y6896087D02*
G01*
X2603497Y6896087D01*
X2857497Y6642087D01*
X2349500Y6642087D02*
G01*
X2603497Y6642087D01*
X2857497Y6388087D01*
X2349500Y6388087D02*
G01*
X2603500Y6388087D01*
X2857497Y6134089D01*
X2349500Y6134089D02*
G01*
X2603497Y6134089D01*
X2857497Y5880089D01*
X2349500Y5880089D02*
G01*
X2603497Y5880089D01*
X2857497Y5626089D01*
X2349500Y5626089D02*
G01*
X2603497Y5626089D01*
X2857497Y5372089D01*
X2349500Y4864092D02*
G01*
X2603497Y4864092D01*
X2857497Y4610092D01*
X2857500Y5118084D02*
G01*
X3111500Y4864084D01*
X4635500Y4864084D01*
X2349500Y4610084D02*
G01*
X2476500Y4483084D01*
X4508500Y4483084D01*
X4635500Y4610084D01*
X4635494Y8166084D02*
G01*
X5397492Y8166084D01*
X2857497Y8166084D02*
G01*
X4635494Y8166084D01*
X5397500Y7912084D02*
G01*
X5397492Y7912084D01*
X5613400Y8153384D01*
X5613400Y8369284D01*
X5600700Y8369284D01*
X5410200Y8559784D01*
X2286000Y8559784D01*
X2146300Y8420084D01*
X2146300Y5575284D01*
X2349500Y5372084D01*
X5397500Y7658084D02*
G01*
X5397492Y7658084D01*
X5702300Y7886684D01*
X5715000Y8432784D01*
X5448292Y8686784D01*
X2247900Y8674084D01*
X2032000Y8458184D01*
X2032000Y5435584D01*
X2349500Y5118084D01*
X4635494Y7912084D02*
G01*
X4889494Y7912084D01*
X5397492Y7404087D01*
X4635494Y7658084D02*
G01*
X4889494Y7658084D01*
X5397492Y7150087D01*
X4635494Y7404087D02*
G01*
X4889492Y7404087D01*
X5397492Y6896087D01*
X4635494Y7150087D02*
G01*
X4889494Y7150087D01*
X5397494Y6642087D01*
X4635494Y6896087D02*
G01*
X4889492Y6896087D01*
X5397492Y6388087D01*
X4635494Y6642087D02*
G01*
X4889494Y6642087D01*
X5397492Y6134089D01*
X4635494Y6388087D02*
G01*
X4889497Y6388087D01*
X5397494Y5880089D01*
X4635494Y6134089D02*
G01*
X4889494Y6134089D01*
X5397494Y5626089D01*
X4635494Y5880089D02*
G01*
X4889494Y5880089D01*
X5397494Y5372089D01*
X4635494Y5626089D02*
G01*
X4889494Y5626089D01*
X5397494Y5118089D01*
X4635494Y5372089D02*
G01*
X4889497Y5372089D01*
X5397494Y4864092D01*
X2349500Y4864092D02*
G01*
X2298700Y4864092D01*
X2120900Y4686292D01*
X2120900Y4279892D01*
X2273300Y4127492D01*
X4914892Y4127492D01*
X5397492Y4610092D01*
X4635494Y5118089D02*
G01*
X4584694Y5118089D01*
X4457694Y5245089D01*
X2743197Y5245089D01*
X2628900Y5143489D01*
X2628900Y5041889D01*
X2857497Y4864092D01*
D12*
G01*
X1574800Y6617700D03*
G01*
X1574800Y6363700D03*
G01*
X1574800Y6109700D03*
G01*
X1574800Y5855700D03*
D13*
G01*
X858794Y8597884D03*
G01*
X858794Y7327884D03*
D12*
G01*
X2349500Y8166084D03*
G01*
X2349576Y7911043D03*
G01*
X2349500Y7658084D03*
G01*
X2349500Y7404084D03*
G01*
X2349500Y7150084D03*
G01*
X2349500Y6896084D03*
G01*
X2349500Y6642084D03*
G01*
X2349500Y6388084D03*
G01*
X2349500Y6134084D03*
G01*
X2349500Y5880084D03*
G01*
X2349500Y5626084D03*
G01*
X2349500Y5372084D03*
G01*
X2349500Y5118084D03*
G01*
X2349500Y4864084D03*
G01*
X2349500Y4610084D03*
G01*
X2349500Y4356084D03*
G01*
X4635500Y4356084D03*
G01*
X4635500Y4610084D03*
G01*
X4635500Y4864084D03*
G01*
X4635500Y5118084D03*
G01*
X4635500Y5372084D03*
G01*
X4635500Y5626084D03*
G01*
X4635500Y5880084D03*
G01*
X4635500Y6134084D03*
G01*
X4635500Y6388084D03*
G01*
X4635500Y6642084D03*
G01*
X4635500Y6896084D03*
G01*
X4635500Y7150084D03*
G01*
X4635500Y7404084D03*
G01*
X4635500Y7658084D03*
G01*
X4635500Y7912084D03*
G01*
X4635500Y8166084D03*
G01*
X5397500Y8166084D03*
G01*
X2857500Y8166084D03*
G01*
X2857500Y7912084D03*
G01*
X2857500Y7658084D03*
G01*
X2857500Y7404084D03*
G01*
X2857500Y7150084D03*
G01*
X2857500Y6896084D03*
G01*
X2857500Y6642084D03*
G01*
X2857500Y6388084D03*
G01*
X2857500Y6134084D03*
G01*
X2857500Y5880084D03*
G01*
X2857500Y5626084D03*
G01*
X2857500Y5372084D03*
G01*
X2857500Y4610084D03*
G01*
X2857500Y5118084D03*
G01*
X2857500Y4864084D03*
G01*
X2857500Y4356084D03*
G01*
X5397500Y7912084D03*
G01*
X5397500Y7658084D03*
G01*
X5397500Y7404084D03*
G01*
X5397500Y7150084D03*
G01*
X5397500Y6896084D03*
G01*
X5397500Y6642084D03*
G01*
X5397500Y6388084D03*
G01*
X5397500Y6134084D03*
G01*
X5397500Y5880084D03*
G01*
X5397500Y5626084D03*
G01*
X5397500Y5372084D03*
G01*
X5397500Y5118084D03*
G01*
X5397500Y4864084D03*
G01*
X5397500Y4610084D03*
G01*
X5397500Y4356084D03*
D14*
G01*
X3810000Y7873984D03*
D15*
G01*
X3810000Y7619984D03*
D14*
G01*
X1282700Y4851384D03*
D15*
G01*
X1282700Y5105384D03*
D12*
G01*
X533400Y4406884D03*
G01*
X279400Y4406884D03*
G01*
X25400Y4406884D03*
D13*
G01*
X1447800Y8585184D03*
G01*
X1447800Y7315184D03*
G01*
X2222500Y3594084D03*
G01*
X952500Y3594084D03*
G01*
X3708400Y5867384D03*
G01*
X3708400Y5613384D03*
D12*
G01*
X292100Y7124684D03*
G01*
X292100Y6870684D03*
G01*
X292100Y6616684D03*
G01*
X292100Y6362684D03*
G01*
X292100Y6108684D03*
G01*
X292100Y5854684D03*
M02*
