M48
METRIC,LZ,000.000
;FILE_FORMAT=3:3
;TYPE=PLATED
;Layer: PTH_Through
;EasyEDA v6.5.50, 2025-08-07 17:35:19
;907c9f2fc05643d1a7414bf7d8136ec9,1ea6220676e248c9a5f209c00a71ac29,10
;Gerber Generator version 0.2
;Holesize 1 = 0.813 mm
T01C0.813
;Holesize 2 = 0.915 mm
T02C0.915
%
G05
G90
T01
X038100Y078740
X038100Y076200
X012827Y048514
X012827Y051054
T02
X015748Y066177
X015748Y063637
X015748Y061097
X015748Y058557
X008588Y085979
X008588Y073279
X023495Y081661
X023495Y079111
X023494Y076581
X023494Y074041
X023494Y071501
X023494Y068961
X023494Y066421
X023494Y063881
X023494Y061341
X023494Y058801
X023494Y056261
X023494Y053721
X023494Y051181
X023494Y048641
X023494Y046101
X023494Y043561
X046354Y043561
X046354Y046101
X046354Y048641
X046354Y051181
X046354Y053721
X046354Y056261
X046354Y058801
X046354Y061341
X046354Y063881
X046354Y066421
X046356Y068961
X046354Y071501
X046354Y074041
X046354Y076581
X046354Y079121
X046354Y081661
X053974Y081661
X028574Y081661
X028574Y079121
X028574Y076581
X028574Y074041
X028574Y071501
X028574Y068961
X028574Y066421
X028574Y063881
X028574Y061341
X028574Y058801
X028574Y056261
X028574Y053721
X028574Y046101
X028574Y051181
X028574Y048641
X028574Y043561
X053974Y079121
X053974Y076581
X053974Y074041
X053974Y071501
X053974Y068961
X053974Y066421
X053976Y063881
X053974Y061341
X053974Y058801
X053974Y056261
X053974Y053721
X053974Y051181
X053974Y048641
X053974Y046101
X053974Y043561
X005334Y044069
X002794Y044069
X000254Y044069
X014478Y085852
X014478Y073152
X022225Y035941
X009525Y035941
X037084Y058674
X037084Y056134
X002921Y071247
X002921Y068707
X002921Y066167
X002921Y063627
X002921Y061087
X002921Y058547
M30
