G04 Layer: BottomSilkscreenLayer*
G04 EasyEDA v6.5.50, 2025-08-07 17:35:19*
G04 907c9f2fc05643d1a7414bf7d8136ec9,1ea6220676e248c9a5f209c00a71ac29,10*
G04 Gerber Generator version 0.2*
G04 Scale: 100 percent, Rotated: No, Reflected: No *
G04 Dimensions in millimeters *
G04 leading zeros omitted , absolute positions ,4 integer and 5 decimal *
%FSLAX45Y45*%
%MOMM*%

%ADD10C,0.2032*%
%ADD11C,0.2540*%
%ADD12C,0.0100*%

%LPD*%
D10*
X796833Y5261970D02*
G01*
X796833Y5137881D01*
X838197Y5261970D02*
G01*
X755469Y5261970D01*
X681017Y5261970D02*
G01*
X692833Y5256062D01*
X704651Y5244244D01*
X710562Y5232425D01*
X716470Y5214698D01*
X716470Y5185153D01*
X710562Y5167426D01*
X704651Y5155608D01*
X692833Y5143789D01*
X681017Y5137881D01*
X657379Y5137881D01*
X645561Y5143789D01*
X633742Y5155608D01*
X627834Y5167426D01*
X621924Y5185153D01*
X621924Y5214698D01*
X627834Y5232425D01*
X633742Y5244244D01*
X645561Y5256062D01*
X657379Y5261970D01*
X681017Y5261970D01*
X582924Y5261970D02*
G01*
X582924Y5137881D01*
X582924Y5261970D02*
G01*
X506107Y5261970D01*
X582924Y5202880D02*
G01*
X535652Y5202880D01*
X293380Y5244244D02*
G01*
X305198Y5256062D01*
X322925Y5261970D01*
X346562Y5261970D01*
X364289Y5256062D01*
X376107Y5244244D01*
X376107Y5232425D01*
X370197Y5220606D01*
X364289Y5214698D01*
X352470Y5208790D01*
X317017Y5196972D01*
X305198Y5191061D01*
X299288Y5185153D01*
X293380Y5173334D01*
X293380Y5155608D01*
X305198Y5143789D01*
X322925Y5137881D01*
X346562Y5137881D01*
X364289Y5143789D01*
X376107Y5155608D01*
X254380Y5185153D02*
G01*
X183471Y5185153D01*
X183471Y5196972D01*
X189379Y5208790D01*
X195290Y5214698D01*
X207109Y5220606D01*
X224835Y5220606D01*
X236654Y5214698D01*
X248470Y5202880D01*
X254380Y5185153D01*
X254380Y5173334D01*
X248470Y5155608D01*
X236654Y5143789D01*
X224835Y5137881D01*
X207109Y5137881D01*
X195290Y5143789D01*
X183471Y5155608D01*
X144472Y5220606D02*
G01*
X144472Y5137881D01*
X144472Y5196972D02*
G01*
X126743Y5214698D01*
X114927Y5220606D01*
X97198Y5220606D01*
X85379Y5214698D01*
X79471Y5196972D01*
X79471Y5137881D01*
X-24528Y5202880D02*
G01*
X-18618Y5214698D01*
X-891Y5220606D01*
X16835Y5220606D01*
X34561Y5214698D01*
X40472Y5202880D01*
X34561Y5191061D01*
X22745Y5185153D01*
X-6802Y5179245D01*
X-18618Y5173334D01*
X-24528Y5161516D01*
X-24528Y5155608D01*
X-18618Y5143789D01*
X-891Y5137881D01*
X16835Y5137881D01*
X34561Y5143789D01*
X40472Y5155608D01*
X-93073Y5220606D02*
G01*
X-81254Y5214698D01*
X-69435Y5202880D01*
X-63527Y5185153D01*
X-63527Y5173334D01*
X-69435Y5155608D01*
X-81254Y5143789D01*
X-93073Y5137881D01*
X-110799Y5137881D01*
X-122618Y5143789D01*
X-134437Y5155608D01*
X-140345Y5173334D01*
X-140345Y5185153D01*
X-134437Y5202880D01*
X-122618Y5214698D01*
X-110799Y5220606D01*
X-93073Y5220606D01*
X-179346Y5220606D02*
G01*
X-179346Y5137881D01*
X-179346Y5185153D02*
G01*
X-185254Y5202880D01*
X-197073Y5214698D01*
X-208892Y5220606D01*
X-226618Y5220606D01*
X1828797Y5200235D02*
G01*
X1816978Y5206144D01*
X1799252Y5223870D01*
X1799252Y5099781D01*
X1724797Y5223870D02*
G01*
X1742523Y5217962D01*
X1754342Y5200235D01*
X1760253Y5170690D01*
X1760253Y5152961D01*
X1754342Y5123416D01*
X1742523Y5105689D01*
X1724797Y5099781D01*
X1712978Y5099781D01*
X1695251Y5105689D01*
X1683433Y5123416D01*
X1677525Y5152961D01*
X1677525Y5170690D01*
X1683433Y5200235D01*
X1695251Y5217962D01*
X1712978Y5223870D01*
X1724797Y5223870D01*
X1603070Y5223870D02*
G01*
X1620796Y5217962D01*
X1632615Y5200235D01*
X1638526Y5170690D01*
X1638526Y5152961D01*
X1632615Y5123416D01*
X1620796Y5105689D01*
X1603070Y5099781D01*
X1591251Y5099781D01*
X1573524Y5105689D01*
X1561706Y5123416D01*
X1555798Y5152961D01*
X1555798Y5170690D01*
X1561706Y5200235D01*
X1573524Y5217962D01*
X1591251Y5223870D01*
X1603070Y5223870D01*
X1481343Y5223870D02*
G01*
X1499069Y5217962D01*
X1510888Y5200235D01*
X1516799Y5170690D01*
X1516799Y5152961D01*
X1510888Y5123416D01*
X1499069Y5105689D01*
X1481343Y5099781D01*
X1469524Y5099781D01*
X1451797Y5105689D01*
X1439979Y5123416D01*
X1434071Y5152961D01*
X1434071Y5170690D01*
X1439979Y5200235D01*
X1451797Y5217962D01*
X1469524Y5223870D01*
X1481343Y5223870D01*
X1395072Y5182506D02*
G01*
X1395072Y5123416D01*
X1389161Y5105689D01*
X1377342Y5099781D01*
X1359616Y5099781D01*
X1347797Y5105689D01*
X1330070Y5123416D01*
X1330070Y5182506D02*
G01*
X1330070Y5099781D01*
X1291071Y5223870D02*
G01*
X1291071Y5099781D01*
X1291071Y5223870D02*
G01*
X1214252Y5223870D01*
X1291071Y5164780D02*
G01*
X1243797Y5164780D01*
X4229092Y7206830D02*
G01*
X4217273Y7212738D01*
X4199547Y7230465D01*
X4199547Y7106376D01*
X4125092Y7230465D02*
G01*
X4142818Y7224557D01*
X4154637Y7206830D01*
X4160547Y7177284D01*
X4160547Y7159556D01*
X4154637Y7130011D01*
X4142818Y7112284D01*
X4125092Y7106376D01*
X4113273Y7106376D01*
X4095546Y7112284D01*
X4083728Y7130011D01*
X4077820Y7159556D01*
X4077820Y7177284D01*
X4083728Y7206830D01*
X4095546Y7224557D01*
X4113273Y7230465D01*
X4125092Y7230465D01*
X4003365Y7230465D02*
G01*
X4021092Y7224557D01*
X4032910Y7206830D01*
X4038820Y7177284D01*
X4038820Y7159556D01*
X4032910Y7130011D01*
X4021092Y7112284D01*
X4003365Y7106376D01*
X3991546Y7106376D01*
X3973819Y7112284D01*
X3962001Y7130011D01*
X3956092Y7159556D01*
X3956092Y7177284D01*
X3962001Y7206830D01*
X3973819Y7224557D01*
X3991546Y7230465D01*
X4003365Y7230465D01*
X3881638Y7230465D02*
G01*
X3899364Y7224557D01*
X3911183Y7206830D01*
X3917093Y7177284D01*
X3917093Y7159556D01*
X3911183Y7130011D01*
X3899364Y7112284D01*
X3881638Y7106376D01*
X3869819Y7106376D01*
X3852093Y7112284D01*
X3840274Y7130011D01*
X3834366Y7159556D01*
X3834366Y7177284D01*
X3840274Y7206830D01*
X3852093Y7224557D01*
X3869819Y7230465D01*
X3881638Y7230465D01*
X3795367Y7189101D02*
G01*
X3795367Y7130011D01*
X3789456Y7112284D01*
X3777637Y7106376D01*
X3759911Y7106376D01*
X3748093Y7112284D01*
X3730365Y7130011D01*
X3730365Y7189101D02*
G01*
X3730365Y7106376D01*
X3691366Y7230465D02*
G01*
X3691366Y7106376D01*
X3691366Y7230465D02*
G01*
X3614547Y7230465D01*
X3691366Y7171375D02*
G01*
X3644093Y7171375D01*
X1561216Y3120011D02*
G01*
X1626214Y3120011D01*
X1590761Y3167283D01*
X1608488Y3167283D01*
X1620306Y3173191D01*
X1626214Y3179102D01*
X1632125Y3196828D01*
X1632125Y3208647D01*
X1626214Y3226374D01*
X1614398Y3238192D01*
X1596669Y3244100D01*
X1578942Y3244100D01*
X1561216Y3238192D01*
X1555305Y3232282D01*
X1549397Y3220465D01*
X1747941Y3161375D02*
G01*
X1742033Y3179102D01*
X1730214Y3190920D01*
X1712488Y3196828D01*
X1706577Y3196828D01*
X1688851Y3190920D01*
X1677032Y3179102D01*
X1671124Y3161375D01*
X1671124Y3155464D01*
X1677032Y3137738D01*
X1688851Y3125919D01*
X1706577Y3120011D01*
X1712488Y3120011D01*
X1730214Y3125919D01*
X1742033Y3137738D01*
X1747941Y3161375D01*
X1747941Y3190920D01*
X1742033Y3220465D01*
X1730214Y3238192D01*
X1712488Y3244100D01*
X1700669Y3244100D01*
X1682943Y3238192D01*
X1677032Y3226374D01*
X1822396Y3120011D02*
G01*
X1804670Y3125919D01*
X1792851Y3143646D01*
X1786943Y3173191D01*
X1786943Y3190920D01*
X1792851Y3220465D01*
X1804670Y3238192D01*
X1822396Y3244100D01*
X1834215Y3244100D01*
X1851941Y3238192D01*
X1863760Y3220465D01*
X1869668Y3190920D01*
X1869668Y3173191D01*
X1863760Y3143646D01*
X1851941Y3125919D01*
X1834215Y3120011D01*
X1822396Y3120011D01*
X685835Y7359192D02*
G01*
X691746Y7359192D01*
X703562Y7365103D01*
X709472Y7371011D01*
X715380Y7382830D01*
X715380Y7406467D01*
X709472Y7418283D01*
X703562Y7424193D01*
X691746Y7430101D01*
X679927Y7430101D01*
X668108Y7424193D01*
X650382Y7412375D01*
X591291Y7353284D01*
X591291Y7436012D01*
X620836Y7480919D02*
G01*
X614926Y7475011D01*
X609018Y7480919D01*
X614926Y7486830D01*
X620836Y7480919D01*
X685835Y7531740D02*
G01*
X691746Y7531740D01*
X703562Y7537648D01*
X709472Y7543556D01*
X715380Y7555374D01*
X715380Y7579012D01*
X709472Y7590830D01*
X703562Y7596738D01*
X691746Y7602646D01*
X679927Y7602646D01*
X668108Y7596738D01*
X650382Y7584920D01*
X591291Y7525829D01*
X591291Y7608557D01*
X715380Y7647556D02*
G01*
X591291Y7647556D01*
X674016Y7706647D02*
G01*
X614926Y7647556D01*
X638563Y7671193D02*
G01*
X591291Y7712557D01*
X697654Y7925282D02*
G01*
X709472Y7913466D01*
X715380Y7895737D01*
X715380Y7872102D01*
X709472Y7854373D01*
X697654Y7842557D01*
X685835Y7842557D01*
X674016Y7848465D01*
X668108Y7854373D01*
X662200Y7866192D01*
X650382Y7901647D01*
X644471Y7913466D01*
X638563Y7919374D01*
X626745Y7925282D01*
X609018Y7925282D01*
X597199Y7913466D01*
X591291Y7895737D01*
X591291Y7872102D01*
X597199Y7854373D01*
X609018Y7842557D01*
X715380Y7964284D02*
G01*
X591291Y7964284D01*
X715380Y7964284D02*
G01*
X715380Y8005648D01*
X709472Y8023374D01*
X697654Y8035193D01*
X685835Y8041101D01*
X668108Y8047009D01*
X638563Y8047009D01*
X620836Y8041101D01*
X609018Y8035193D01*
X597199Y8023374D01*
X591291Y8005648D01*
X591291Y7964284D01*
X715380Y8133283D02*
G01*
X591291Y8086011D01*
X715380Y8133283D02*
G01*
X591291Y8180555D01*
X632655Y8103737D02*
G01*
X632655Y8162828D01*
X1270033Y7333792D02*
G01*
X1275943Y7333792D01*
X1287759Y7339703D01*
X1293670Y7345611D01*
X1299578Y7357430D01*
X1299578Y7381067D01*
X1293670Y7392883D01*
X1287759Y7398793D01*
X1275943Y7404701D01*
X1264124Y7404701D01*
X1252306Y7398793D01*
X1234579Y7386975D01*
X1175489Y7327884D01*
X1175489Y7410612D01*
X1205034Y7455519D02*
G01*
X1199123Y7449611D01*
X1193215Y7455519D01*
X1199123Y7461430D01*
X1205034Y7455519D01*
X1270033Y7506340D02*
G01*
X1275943Y7506340D01*
X1287759Y7512248D01*
X1293670Y7518156D01*
X1299578Y7529974D01*
X1299578Y7553612D01*
X1293670Y7565430D01*
X1287759Y7571338D01*
X1275943Y7577246D01*
X1264124Y7577246D01*
X1252306Y7571338D01*
X1234579Y7559520D01*
X1175489Y7500429D01*
X1175489Y7583157D01*
X1299578Y7622156D02*
G01*
X1175489Y7622156D01*
X1258214Y7681247D02*
G01*
X1199123Y7622156D01*
X1222761Y7645793D02*
G01*
X1175489Y7687157D01*
X1281851Y7899882D02*
G01*
X1293670Y7888066D01*
X1299578Y7870337D01*
X1299578Y7846702D01*
X1293670Y7828973D01*
X1281851Y7817157D01*
X1270033Y7817157D01*
X1258214Y7823065D01*
X1252306Y7828973D01*
X1246398Y7840792D01*
X1234579Y7876247D01*
X1228669Y7888066D01*
X1222761Y7893974D01*
X1210942Y7899882D01*
X1193215Y7899882D01*
X1181397Y7888066D01*
X1175489Y7870337D01*
X1175489Y7846702D01*
X1181397Y7828973D01*
X1193215Y7817157D01*
X1270033Y8027520D02*
G01*
X1281851Y8021609D01*
X1293670Y8009793D01*
X1299578Y7997974D01*
X1299578Y7974337D01*
X1293670Y7962519D01*
X1281851Y7950702D01*
X1270033Y7944792D01*
X1252306Y7938884D01*
X1222761Y7938884D01*
X1205034Y7944792D01*
X1193215Y7950702D01*
X1181397Y7962519D01*
X1175489Y7974337D01*
X1175489Y7997974D01*
X1181397Y8009793D01*
X1193215Y8021609D01*
X1205034Y8027520D01*
X1299578Y8066519D02*
G01*
X1175489Y8066519D01*
X1175489Y8066519D02*
G01*
X1175489Y8137428D01*
X820948Y5867389D02*
G01*
X826790Y5879327D01*
X838728Y5891011D01*
X850412Y5896853D01*
X874034Y5896853D01*
X885972Y5891011D01*
X897656Y5879327D01*
X903752Y5867389D01*
X909594Y5849609D01*
X909594Y5820145D01*
X903752Y5802365D01*
X897656Y5790681D01*
X885972Y5778743D01*
X874034Y5772901D01*
X850412Y5772901D01*
X838728Y5778743D01*
X826790Y5790681D01*
X820948Y5802365D01*
X820948Y5820145D01*
X850412Y5820145D02*
G01*
X820948Y5820145D01*
X781832Y5896853D02*
G01*
X781832Y5772901D01*
X781832Y5896853D02*
G01*
X699282Y5772901D01*
X699282Y5896853D02*
G01*
X699282Y5772901D01*
X660166Y5896853D02*
G01*
X660166Y5772901D01*
X660166Y5896853D02*
G01*
X618764Y5896853D01*
X601238Y5891011D01*
X589300Y5879327D01*
X583458Y5867389D01*
X577616Y5849609D01*
X577616Y5820145D01*
X583458Y5802365D01*
X589300Y5790681D01*
X601238Y5778743D01*
X618764Y5772901D01*
X660166Y5772901D01*
X826866Y6666641D02*
G01*
X838685Y6678460D01*
X856411Y6684368D01*
X880049Y6684368D01*
X897775Y6678460D01*
X909594Y6666641D01*
X909594Y6654822D01*
X903686Y6643004D01*
X897775Y6637096D01*
X885957Y6631188D01*
X850503Y6619369D01*
X838685Y6613458D01*
X832777Y6607550D01*
X826866Y6595732D01*
X826866Y6578005D01*
X838685Y6566187D01*
X856411Y6560278D01*
X880049Y6560278D01*
X897775Y6566187D01*
X909594Y6578005D01*
X699231Y6654822D02*
G01*
X705139Y6666641D01*
X716958Y6678460D01*
X728776Y6684368D01*
X752414Y6684368D01*
X764230Y6678460D01*
X776048Y6666641D01*
X781959Y6654822D01*
X787867Y6637096D01*
X787867Y6607550D01*
X781959Y6589824D01*
X776048Y6578005D01*
X764230Y6566187D01*
X752414Y6560278D01*
X728776Y6560278D01*
X716958Y6566187D01*
X705139Y6578005D01*
X699231Y6589824D01*
X660232Y6684368D02*
G01*
X660232Y6560278D01*
X660232Y6560278D02*
G01*
X589323Y6560278D01*
X39469Y6387241D02*
G01*
X51287Y6399060D01*
X69014Y6404968D01*
X92651Y6404968D01*
X110378Y6399060D01*
X122196Y6387241D01*
X122196Y6375422D01*
X116288Y6363604D01*
X110378Y6357696D01*
X98559Y6351788D01*
X63106Y6339969D01*
X51287Y6334058D01*
X45379Y6328150D01*
X39469Y6316332D01*
X39469Y6298605D01*
X51287Y6286787D01*
X69014Y6280878D01*
X92651Y6280878D01*
X110378Y6286787D01*
X122196Y6298605D01*
X469Y6404968D02*
G01*
X469Y6280878D01*
X469Y6404968D02*
G01*
X-40894Y6404968D01*
X-58620Y6399060D01*
X-70439Y6387241D01*
X-76347Y6375422D01*
X-82257Y6357696D01*
X-82257Y6328150D01*
X-76347Y6310424D01*
X-70439Y6298605D01*
X-58620Y6286787D01*
X-40894Y6280878D01*
X469Y6280878D01*
X-168529Y6404968D02*
G01*
X-121257Y6280878D01*
X-168529Y6404968D02*
G01*
X-215803Y6280878D01*
X-138983Y6322242D02*
G01*
X-198074Y6322242D01*
X897775Y6163668D02*
G01*
X832777Y6163668D01*
X868230Y6116396D01*
X850503Y6116396D01*
X838685Y6110488D01*
X832777Y6104577D01*
X826866Y6086850D01*
X826866Y6075032D01*
X832777Y6057305D01*
X844595Y6045487D01*
X862322Y6039578D01*
X880049Y6039578D01*
X897775Y6045487D01*
X903686Y6051397D01*
X909594Y6063213D01*
X781959Y6069124D02*
G01*
X787867Y6063213D01*
X781959Y6057305D01*
X776048Y6063213D01*
X781959Y6069124D01*
X725230Y6163668D02*
G01*
X660232Y6163668D01*
X695685Y6116396D01*
X677959Y6116396D01*
X666140Y6110488D01*
X660232Y6104577D01*
X654321Y6086850D01*
X654321Y6075032D01*
X660232Y6057305D01*
X672048Y6045487D01*
X689777Y6039578D01*
X707504Y6039578D01*
X725230Y6045487D01*
X731138Y6051397D01*
X737049Y6063213D01*
X615322Y6163668D02*
G01*
X568050Y6039578D01*
X520776Y6163668D02*
G01*
X568050Y6039578D01*
X3487689Y4093573D02*
G01*
X3487689Y3969484D01*
X3487689Y4093573D02*
G01*
X3434506Y4093573D01*
X3416780Y4087665D01*
X3410872Y4081754D01*
X3404961Y4069938D01*
X3404961Y4052209D01*
X3410872Y4040393D01*
X3416780Y4034482D01*
X3434506Y4028574D01*
X3487689Y4028574D01*
X3365962Y4093573D02*
G01*
X3365962Y3969484D01*
X3365962Y4093573D02*
G01*
X3283234Y3969484D01*
X3283234Y4093573D02*
G01*
X3283234Y3969484D01*
X3173326Y4093573D02*
G01*
X3232416Y4093573D01*
X3238327Y4040393D01*
X3232416Y4046301D01*
X3214690Y4052209D01*
X3196963Y4052209D01*
X3179234Y4046301D01*
X3167418Y4034482D01*
X3161507Y4016755D01*
X3161507Y4004937D01*
X3167418Y3987210D01*
X3179234Y3975392D01*
X3196963Y3969484D01*
X3214690Y3969484D01*
X3232416Y3975392D01*
X3238327Y3981302D01*
X3244235Y3993118D01*
X3110689Y4093573D02*
G01*
X3045691Y4093573D01*
X3081144Y4046301D01*
X3063417Y4046301D01*
X3051599Y4040393D01*
X3045691Y4034482D01*
X3039780Y4016755D01*
X3039780Y4004937D01*
X3045691Y3987210D01*
X3057507Y3975392D01*
X3075236Y3969484D01*
X3092963Y3969484D01*
X3110689Y3975392D01*
X3116600Y3981302D01*
X3122508Y3993118D01*
X2994870Y4064027D02*
G01*
X2994870Y4069938D01*
X2988962Y4081754D01*
X2983054Y4087665D01*
X2971236Y4093573D01*
X2947598Y4093573D01*
X2935780Y4087665D01*
X2929872Y4081754D01*
X2923964Y4069938D01*
X2923964Y4058119D01*
X2929872Y4046301D01*
X2941690Y4028574D01*
X3000781Y3969484D01*
X2918053Y3969484D01*
X2788053Y4093573D02*
G01*
X2788053Y3969484D01*
X2788053Y4093573D02*
G01*
X2705326Y3969484D01*
X2705326Y4093573D02*
G01*
X2705326Y3969484D01*
X2666326Y4093573D02*
G01*
X2666326Y3969484D01*
X2666326Y4093573D02*
G01*
X2589509Y4093573D01*
X2666326Y4034482D02*
G01*
X2619054Y4034482D01*
X2461872Y4064027D02*
G01*
X2467782Y4075846D01*
X2479601Y4087665D01*
X2491417Y4093573D01*
X2515054Y4093573D01*
X2526873Y4087665D01*
X2538691Y4075846D01*
X2544599Y4064027D01*
X2550510Y4046301D01*
X2550510Y4016755D01*
X2544599Y3999029D01*
X2538691Y3987210D01*
X2526873Y3975392D01*
X2515054Y3969484D01*
X2491417Y3969484D01*
X2479601Y3975392D01*
X2467782Y3987210D01*
X2461872Y3999029D01*
X2316510Y4117210D02*
G01*
X2422872Y3928120D01*
X2277508Y4093573D02*
G01*
X2277508Y3969484D01*
X2277508Y4093573D02*
G01*
X2224328Y4093573D01*
X2206602Y4087665D01*
X2200691Y4081754D01*
X2194783Y4069938D01*
X2194783Y4058119D01*
X2200691Y4046301D01*
X2206602Y4040393D01*
X2224328Y4034482D01*
X2277508Y4034482D01*
X2236147Y4034482D02*
G01*
X2194783Y3969484D01*
X2155781Y4093573D02*
G01*
X2155781Y3969484D01*
X2155781Y4093573D02*
G01*
X2078964Y4093573D01*
X2155781Y4034482D02*
G01*
X2108509Y4034482D01*
X2039965Y4093573D02*
G01*
X2039965Y3969484D01*
X2000963Y4093573D02*
G01*
X2000963Y3969484D01*
X2000963Y4093573D02*
G01*
X1959602Y4093573D01*
X1941873Y4087665D01*
X1930057Y4075846D01*
X1924146Y4064027D01*
X1918238Y4046301D01*
X1918238Y4016755D01*
X1924146Y3999029D01*
X1930057Y3987210D01*
X1941873Y3975392D01*
X1959602Y3969484D01*
X2000963Y3969484D01*
X1788238Y4093573D02*
G01*
X1788238Y3969484D01*
X1788238Y4093573D02*
G01*
X1735056Y4093573D01*
X1717329Y4087665D01*
X1711418Y4081754D01*
X1705510Y4069938D01*
X1705510Y4058119D01*
X1711418Y4046301D01*
X1717329Y4040393D01*
X1735056Y4034482D01*
X1788238Y4034482D01*
X1746874Y4034482D02*
G01*
X1705510Y3969484D01*
X1666511Y4016755D02*
G01*
X1595602Y4016755D01*
X1595602Y4028574D01*
X1601510Y4040393D01*
X1607421Y4046301D01*
X1619237Y4052209D01*
X1636966Y4052209D01*
X1648782Y4046301D01*
X1660601Y4034482D01*
X1666511Y4016755D01*
X1666511Y4004937D01*
X1660601Y3987210D01*
X1648782Y3975392D01*
X1636966Y3969484D01*
X1619237Y3969484D01*
X1607421Y3975392D01*
X1595602Y3987210D01*
X1485694Y4052209D02*
G01*
X1485694Y3969484D01*
X1485694Y4034482D02*
G01*
X1497510Y4046301D01*
X1509328Y4052209D01*
X1527055Y4052209D01*
X1538874Y4046301D01*
X1550692Y4034482D01*
X1556603Y4016755D01*
X1556603Y4004937D01*
X1550692Y3987210D01*
X1538874Y3975392D01*
X1527055Y3969484D01*
X1509328Y3969484D01*
X1497510Y3975392D01*
X1485694Y3987210D01*
X1375783Y4093573D02*
G01*
X1375783Y3969484D01*
X1375783Y4034482D02*
G01*
X1387602Y4046301D01*
X1399420Y4052209D01*
X1417147Y4052209D01*
X1428965Y4046301D01*
X1440784Y4034482D01*
X1446692Y4016755D01*
X1446692Y4004937D01*
X1440784Y3987210D01*
X1428965Y3975392D01*
X1417147Y3969484D01*
X1399420Y3969484D01*
X1387602Y3975392D01*
X1375783Y3987210D01*
X1336784Y4016755D02*
G01*
X1265875Y4016755D01*
X1265875Y4028574D01*
X1271785Y4040393D01*
X1277693Y4046301D01*
X1289512Y4052209D01*
X1307238Y4052209D01*
X1319057Y4046301D01*
X1330876Y4034482D01*
X1336784Y4016755D01*
X1336784Y4004937D01*
X1330876Y3987210D01*
X1319057Y3975392D01*
X1307238Y3969484D01*
X1289512Y3969484D01*
X1277693Y3975392D01*
X1265875Y3987210D01*
X1226875Y4052209D02*
G01*
X1226875Y3969484D01*
X1226875Y4016755D02*
G01*
X1220965Y4034482D01*
X1209149Y4046301D01*
X1197330Y4052209D01*
X1179603Y4052209D01*
X2104153Y8195556D02*
G01*
X2039383Y8195556D01*
X2074689Y8148312D01*
X2056909Y8148312D01*
X2045225Y8142470D01*
X2039383Y8136628D01*
X2033287Y8118848D01*
X2033287Y8107164D01*
X2039383Y8089384D01*
X2051067Y8077446D01*
X2068847Y8071604D01*
X2086627Y8071604D01*
X2104153Y8077446D01*
X2110249Y8083288D01*
X2116091Y8095226D01*
X1994425Y8195556D02*
G01*
X1947181Y8071604D01*
X1899937Y8195556D02*
G01*
X1947181Y8071604D01*
X1848883Y8195556D02*
G01*
X1784113Y8195556D01*
X1819419Y8148312D01*
X1801639Y8148312D01*
X1789955Y8142470D01*
X1784113Y8136628D01*
X1778017Y8118848D01*
X1778017Y8107164D01*
X1784113Y8089384D01*
X1795797Y8077446D01*
X1813577Y8071604D01*
X1831357Y8071604D01*
X1848883Y8077446D01*
X1854979Y8083288D01*
X1860821Y8095226D01*
X2120900Y7966956D02*
G01*
X2120900Y7843004D01*
X2120900Y7966956D02*
G01*
X2067813Y7966956D01*
X2050034Y7961114D01*
X2044191Y7955272D01*
X2038095Y7943334D01*
X2038095Y7931650D01*
X2044191Y7919712D01*
X2050034Y7913870D01*
X2067813Y7908028D01*
X2120900Y7908028D01*
X2079497Y7908028D02*
G01*
X2038095Y7843004D01*
X1916429Y7949430D02*
G01*
X1928368Y7961114D01*
X1945893Y7966956D01*
X1969515Y7966956D01*
X1987295Y7961114D01*
X1999234Y7949430D01*
X1999234Y7937492D01*
X1993138Y7925808D01*
X1987295Y7919712D01*
X1975611Y7913870D01*
X1940052Y7902186D01*
X1928368Y7896090D01*
X1922271Y7890248D01*
X1916429Y7878564D01*
X1916429Y7860784D01*
X1928368Y7848846D01*
X1945893Y7843004D01*
X1969515Y7843004D01*
X1987295Y7848846D01*
X1999234Y7860784D01*
X1836165Y7966956D02*
G01*
X1836165Y7843004D01*
X1877568Y7966956D02*
G01*
X1794763Y7966956D01*
X2061718Y7738356D02*
G01*
X2120900Y7655806D01*
X2032254Y7655806D01*
X2061718Y7738356D02*
G01*
X2061718Y7614404D01*
X2050034Y7484356D02*
G01*
X2108961Y7484356D01*
X2115058Y7431270D01*
X2108961Y7437112D01*
X2091436Y7443208D01*
X2073656Y7443208D01*
X2055875Y7437112D01*
X2044191Y7425428D01*
X2038095Y7407648D01*
X2038095Y7395964D01*
X2044191Y7378184D01*
X2055875Y7366246D01*
X2073656Y7360404D01*
X2091436Y7360404D01*
X2108961Y7366246D01*
X2115058Y7372088D01*
X2120900Y7384026D01*
X2050034Y7225530D02*
G01*
X2055875Y7237214D01*
X2073656Y7243056D01*
X2085340Y7243056D01*
X2103120Y7237214D01*
X2115058Y7219434D01*
X2120900Y7189970D01*
X2120900Y7160506D01*
X2115058Y7136884D01*
X2103120Y7124946D01*
X2085340Y7119104D01*
X2079497Y7119104D01*
X2061718Y7124946D01*
X2050034Y7136884D01*
X2044191Y7154664D01*
X2044191Y7160506D01*
X2050034Y7178286D01*
X2061718Y7189970D01*
X2079497Y7195812D01*
X2085340Y7195812D01*
X2103120Y7189970D01*
X2115058Y7178286D01*
X2120900Y7160506D01*
X2038095Y6950956D02*
G01*
X2097277Y6827004D01*
X2120900Y6950956D02*
G01*
X2038095Y6950956D01*
X2085340Y6709656D02*
G01*
X2103120Y6703814D01*
X2115058Y6686034D01*
X2120900Y6656570D01*
X2120900Y6638790D01*
X2115058Y6609326D01*
X2103120Y6591546D01*
X2085340Y6585704D01*
X2073656Y6585704D01*
X2055875Y6591546D01*
X2044191Y6609326D01*
X2038095Y6638790D01*
X2038095Y6656570D01*
X2044191Y6686034D01*
X2055875Y6703814D01*
X2073656Y6709656D01*
X2085340Y6709656D01*
X2120900Y6444734D02*
G01*
X2108961Y6450830D01*
X2091436Y6468356D01*
X2091436Y6344404D01*
X2091436Y6201656D02*
G01*
X2108961Y6195814D01*
X2115058Y6184130D01*
X2115058Y6172192D01*
X2108961Y6160508D01*
X2097277Y6154412D01*
X2073656Y6148570D01*
X2055875Y6142728D01*
X2044191Y6130790D01*
X2038095Y6119106D01*
X2038095Y6101326D01*
X2044191Y6089388D01*
X2050034Y6083546D01*
X2067813Y6077704D01*
X2091436Y6077704D01*
X2108961Y6083546D01*
X2115058Y6089388D01*
X2120900Y6101326D01*
X2120900Y6119106D01*
X2115058Y6130790D01*
X2103120Y6142728D01*
X2085340Y6148570D01*
X2061718Y6154412D01*
X2050034Y6160508D01*
X2044191Y6172192D01*
X2044191Y6184130D01*
X2050034Y6195814D01*
X2067813Y6201656D01*
X2091436Y6201656D01*
X2133600Y5924034D02*
G01*
X2121661Y5930130D01*
X2104136Y5947656D01*
X2104136Y5823704D01*
X2029713Y5947656D02*
G01*
X2047240Y5941814D01*
X2059177Y5924034D01*
X2065020Y5894570D01*
X2065020Y5876790D01*
X2059177Y5847326D01*
X2047240Y5829546D01*
X2029713Y5823704D01*
X2017775Y5823704D01*
X1999995Y5829546D01*
X1988311Y5847326D01*
X1982215Y5876790D01*
X1982215Y5894570D01*
X1988311Y5924034D01*
X1999995Y5941814D01*
X2017775Y5947656D01*
X2029713Y5947656D01*
X2120900Y5682734D02*
G01*
X2108961Y5688830D01*
X2091436Y5706356D01*
X2091436Y5582404D01*
X2052320Y5682734D02*
G01*
X2040636Y5688830D01*
X2022856Y5706356D01*
X2022856Y5582404D01*
X2127758Y5422892D02*
G01*
X2127758Y5428734D01*
X2121661Y5440672D01*
X2115820Y5446514D01*
X2104136Y5452356D01*
X2080513Y5452356D01*
X2068575Y5446514D01*
X2062734Y5440672D01*
X2056891Y5428734D01*
X2056891Y5417050D01*
X2062734Y5405112D01*
X2074418Y5387586D01*
X2133600Y5328404D01*
X2050795Y5328404D01*
X2121661Y5198356D02*
G01*
X2056891Y5198356D01*
X2092197Y5151112D01*
X2074418Y5151112D01*
X2062734Y5145270D01*
X2056891Y5139428D01*
X2050795Y5121648D01*
X2050795Y5109964D01*
X2056891Y5092184D01*
X2068575Y5080246D01*
X2086356Y5074404D01*
X2104136Y5074404D01*
X2121661Y5080246D01*
X2127758Y5086088D01*
X2133600Y5098026D01*
X2062734Y4931656D02*
G01*
X2121661Y4931656D01*
X2127758Y4878570D01*
X2121661Y4884412D01*
X2104136Y4890508D01*
X2086356Y4890508D01*
X2068575Y4884412D01*
X2056891Y4872728D01*
X2050795Y4854948D01*
X2050795Y4843264D01*
X2056891Y4825484D01*
X2068575Y4813546D01*
X2086356Y4807704D01*
X2104136Y4807704D01*
X2121661Y4813546D01*
X2127758Y4819388D01*
X2133600Y4831326D01*
X2011934Y4931656D02*
G01*
X1964690Y4807704D01*
X1917445Y4931656D02*
G01*
X1964690Y4807704D01*
X2044954Y4648192D02*
G01*
X2050795Y4660130D01*
X2062734Y4671814D01*
X2074418Y4677656D01*
X2098040Y4677656D01*
X2109977Y4671814D01*
X2121661Y4660130D01*
X2127758Y4648192D01*
X2133600Y4630412D01*
X2133600Y4600948D01*
X2127758Y4583168D01*
X2121661Y4571484D01*
X2109977Y4559546D01*
X2098040Y4553704D01*
X2074418Y4553704D01*
X2062734Y4559546D01*
X2050795Y4571484D01*
X2044954Y4583168D01*
X2044954Y4600948D01*
X2074418Y4600948D02*
G01*
X2044954Y4600948D01*
X2005838Y4677656D02*
G01*
X2005838Y4553704D01*
X2005838Y4677656D02*
G01*
X1923287Y4553704D01*
X1923287Y4677656D02*
G01*
X1923287Y4553704D01*
X1884171Y4677656D02*
G01*
X1884171Y4553704D01*
X1884171Y4677656D02*
G01*
X1842770Y4677656D01*
X1825244Y4671814D01*
X1813305Y4660130D01*
X1807463Y4648192D01*
X1801621Y4630412D01*
X1801621Y4600948D01*
X1807463Y4583168D01*
X1813305Y4571484D01*
X1825244Y4559546D01*
X1842770Y4553704D01*
X1884171Y4553704D01*
X2120900Y4410956D02*
G01*
X2120900Y4287004D01*
X2120900Y4410956D02*
G01*
X2038095Y4287004D01*
X2038095Y4410956D02*
G01*
X2038095Y4287004D01*
X1910587Y4381492D02*
G01*
X1916429Y4393430D01*
X1928368Y4405114D01*
X1940052Y4410956D01*
X1963674Y4410956D01*
X1975611Y4405114D01*
X1987295Y4393430D01*
X1993138Y4381492D01*
X1999234Y4363712D01*
X1999234Y4334248D01*
X1993138Y4316468D01*
X1987295Y4304784D01*
X1975611Y4292846D01*
X1963674Y4287004D01*
X1940052Y4287004D01*
X1928368Y4292846D01*
X1916429Y4304784D01*
X1910587Y4316468D01*
X2420896Y8425926D02*
G01*
X2408958Y8432022D01*
X2391432Y8449548D01*
X2391432Y8325596D01*
X2261384Y8449548D02*
G01*
X2261384Y8325596D01*
X2261384Y8449548D02*
G01*
X2208044Y8449548D01*
X2190518Y8443706D01*
X2184422Y8437864D01*
X2178580Y8425926D01*
X2178580Y8408400D01*
X2184422Y8396462D01*
X2190518Y8390620D01*
X2208044Y8384778D01*
X2261384Y8384778D01*
X2139718Y8449548D02*
G01*
X2139718Y8325596D01*
X2100602Y8408400D02*
G01*
X2100602Y8349218D01*
X2094760Y8331438D01*
X2082822Y8325596D01*
X2065296Y8325596D01*
X2053358Y8331438D01*
X2035578Y8349218D01*
X2035578Y8408400D02*
G01*
X2035578Y8325596D01*
X1925596Y8408400D02*
G01*
X1925596Y8313658D01*
X1931692Y8296132D01*
X1937534Y8290036D01*
X1949472Y8284194D01*
X1966998Y8284194D01*
X1978936Y8290036D01*
X1925596Y8390620D02*
G01*
X1937534Y8402304D01*
X1949472Y8408400D01*
X1966998Y8408400D01*
X1978936Y8402304D01*
X1990620Y8390620D01*
X1996716Y8372840D01*
X1996716Y8361156D01*
X1990620Y8343376D01*
X1978936Y8331438D01*
X1966998Y8325596D01*
X1949472Y8325596D01*
X1937534Y8331438D01*
X1925596Y8343376D01*
X3373633Y8166084D02*
G01*
X3379475Y8178022D01*
X3391413Y8189706D01*
X3403097Y8195548D01*
X3426719Y8195548D01*
X3438657Y8189706D01*
X3450341Y8178022D01*
X3456437Y8166084D01*
X3462279Y8148304D01*
X3462279Y8118840D01*
X3456437Y8101060D01*
X3450341Y8089376D01*
X3438657Y8077438D01*
X3426719Y8071596D01*
X3403097Y8071596D01*
X3391413Y8077438D01*
X3379475Y8089376D01*
X3373633Y8101060D01*
X3373633Y8118840D01*
X3403097Y8118840D02*
G01*
X3373633Y8118840D01*
X3334771Y8195548D02*
G01*
X3334771Y8071596D01*
X3334771Y8195548D02*
G01*
X3251967Y8071596D01*
X3251967Y8195548D02*
G01*
X3251967Y8071596D01*
X3212851Y8195548D02*
G01*
X3212851Y8071596D01*
X3212851Y8195548D02*
G01*
X3171449Y8195548D01*
X3153923Y8189706D01*
X3141985Y8178022D01*
X3136143Y8166084D01*
X3130301Y8148304D01*
X3130301Y8118840D01*
X3136143Y8101060D01*
X3141985Y8089376D01*
X3153923Y8077438D01*
X3171449Y8071596D01*
X3212851Y8071596D01*
X3455156Y7992356D02*
G01*
X3390386Y7992356D01*
X3425692Y7945112D01*
X3407912Y7945112D01*
X3396228Y7939270D01*
X3390386Y7933428D01*
X3384290Y7915648D01*
X3384290Y7903964D01*
X3390386Y7886184D01*
X3402070Y7874246D01*
X3419850Y7868404D01*
X3437630Y7868404D01*
X3455156Y7874246D01*
X3461252Y7880088D01*
X3467094Y7892026D01*
X3345428Y7992356D02*
G01*
X3298184Y7868404D01*
X3250940Y7992356D02*
G01*
X3298184Y7868404D01*
X3199886Y7992356D02*
G01*
X3135116Y7992356D01*
X3170422Y7945112D01*
X3152642Y7945112D01*
X3140958Y7939270D01*
X3135116Y7933428D01*
X3129020Y7915648D01*
X3129020Y7903964D01*
X3135116Y7886184D01*
X3146800Y7874246D01*
X3164580Y7868404D01*
X3182360Y7868404D01*
X3199886Y7874246D01*
X3205982Y7880088D01*
X3211824Y7892026D01*
X3441694Y7725656D02*
G01*
X3441694Y7601704D01*
X3441694Y7725656D02*
G01*
X3388608Y7725656D01*
X3370828Y7719814D01*
X3364986Y7713972D01*
X3358890Y7702034D01*
X3358890Y7690350D01*
X3364986Y7678412D01*
X3370828Y7672570D01*
X3388608Y7666728D01*
X3441694Y7666728D01*
X3400292Y7666728D02*
G01*
X3358890Y7601704D01*
X3237224Y7708130D02*
G01*
X3249162Y7719814D01*
X3266688Y7725656D01*
X3290310Y7725656D01*
X3308090Y7719814D01*
X3320028Y7708130D01*
X3320028Y7696192D01*
X3313932Y7684508D01*
X3308090Y7678412D01*
X3296406Y7672570D01*
X3260846Y7660886D01*
X3249162Y7654790D01*
X3243066Y7648948D01*
X3237224Y7637264D01*
X3237224Y7619484D01*
X3249162Y7607546D01*
X3266688Y7601704D01*
X3290310Y7601704D01*
X3308090Y7607546D01*
X3320028Y7619484D01*
X3156960Y7725656D02*
G01*
X3156960Y7601704D01*
X3198362Y7725656D02*
G01*
X3115558Y7725656D01*
X3276587Y5174729D02*
G01*
X3264649Y5180825D01*
X3247123Y5198351D01*
X3247123Y5074399D01*
X3202165Y5168887D02*
G01*
X3202165Y5174729D01*
X3196323Y5186667D01*
X3190229Y5192509D01*
X3178545Y5198351D01*
X3154921Y5198351D01*
X3142985Y5192509D01*
X3137141Y5186667D01*
X3131299Y5174729D01*
X3131299Y5163045D01*
X3137141Y5151107D01*
X3149079Y5133581D01*
X3208007Y5074399D01*
X3125205Y5074399D01*
X3276587Y4920736D02*
G01*
X3264649Y4926832D01*
X3247123Y4944358D01*
X3247123Y4820406D01*
X3196323Y4944358D02*
G01*
X3131299Y4944358D01*
X3166605Y4897114D01*
X3149079Y4897114D01*
X3137141Y4891272D01*
X3131299Y4885430D01*
X3125205Y4867650D01*
X3125205Y4855966D01*
X3131299Y4838186D01*
X3142985Y4826248D01*
X3160763Y4820406D01*
X3178545Y4820406D01*
X3196323Y4826248D01*
X3202165Y4832090D01*
X3208007Y4844028D01*
X3256528Y4703056D02*
G01*
X3315456Y4703056D01*
X3321552Y4649970D01*
X3315456Y4655812D01*
X3297930Y4661908D01*
X3280150Y4661908D01*
X3262370Y4655812D01*
X3250686Y4644128D01*
X3244590Y4626348D01*
X3244590Y4614664D01*
X3250686Y4596884D01*
X3262370Y4584946D01*
X3280150Y4579104D01*
X3297930Y4579104D01*
X3315456Y4584946D01*
X3321552Y4590788D01*
X3327394Y4602726D01*
X3205728Y4703056D02*
G01*
X3158484Y4579104D01*
X3111240Y4703056D02*
G01*
X3158484Y4579104D01*
X3187692Y4395208D02*
G01*
X3122668Y4312404D01*
X3122668Y4395208D02*
G01*
X3187692Y4312404D01*
X3225794Y5441434D02*
G01*
X3213856Y5447530D01*
X3196330Y5465056D01*
X3196330Y5341104D01*
X3157214Y5441434D02*
G01*
X3145530Y5447530D01*
X3127750Y5465056D01*
X3127750Y5341104D01*
X3263894Y5695434D02*
G01*
X3251956Y5701530D01*
X3234430Y5719056D01*
X3234430Y5595104D01*
X3160008Y5719056D02*
G01*
X3177534Y5713214D01*
X3189472Y5695434D01*
X3195314Y5665970D01*
X3195314Y5648190D01*
X3189472Y5618726D01*
X3177534Y5600946D01*
X3160008Y5595104D01*
X3148070Y5595104D01*
X3130290Y5600946D01*
X3118606Y5618726D01*
X3112510Y5648190D01*
X3112510Y5665970D01*
X3118606Y5695434D01*
X3130290Y5713214D01*
X3148070Y5719056D01*
X3160008Y5719056D01*
X3170930Y5960356D02*
G01*
X3188456Y5954514D01*
X3194552Y5942830D01*
X3194552Y5930892D01*
X3188456Y5919208D01*
X3176772Y5913112D01*
X3153150Y5907270D01*
X3135370Y5901428D01*
X3123686Y5889490D01*
X3117590Y5877806D01*
X3117590Y5860026D01*
X3123686Y5848088D01*
X3129528Y5842246D01*
X3147308Y5836404D01*
X3170930Y5836404D01*
X3188456Y5842246D01*
X3194552Y5848088D01*
X3200394Y5860026D01*
X3200394Y5877806D01*
X3194552Y5889490D01*
X3182614Y5901428D01*
X3164834Y5907270D01*
X3141212Y5913112D01*
X3129528Y5919208D01*
X3123686Y5930892D01*
X3123686Y5942830D01*
X3129528Y5954514D01*
X3147308Y5960356D01*
X3170930Y5960356D01*
X3162279Y6190736D02*
G01*
X3150341Y6196832D01*
X3132815Y6214358D01*
X3132815Y6090406D01*
X3177534Y6455651D02*
G01*
X3195314Y6449809D01*
X3207252Y6432029D01*
X3213094Y6402565D01*
X3213094Y6384785D01*
X3207252Y6355321D01*
X3195314Y6337541D01*
X3177534Y6331699D01*
X3165850Y6331699D01*
X3148070Y6337541D01*
X3136386Y6355321D01*
X3130290Y6384785D01*
X3130290Y6402565D01*
X3136386Y6432029D01*
X3148070Y6449809D01*
X3165850Y6455651D01*
X3177534Y6455651D01*
X3130290Y6709656D02*
G01*
X3189472Y6585704D01*
X3213094Y6709656D02*
G01*
X3130290Y6709656D01*
X3142228Y6971530D02*
G01*
X3148070Y6983214D01*
X3165850Y6989056D01*
X3177534Y6989056D01*
X3195314Y6983214D01*
X3207252Y6965434D01*
X3213094Y6935970D01*
X3213094Y6906506D01*
X3207252Y6882884D01*
X3195314Y6870946D01*
X3177534Y6865104D01*
X3171692Y6865104D01*
X3153912Y6870946D01*
X3142228Y6882884D01*
X3136386Y6900664D01*
X3136386Y6906506D01*
X3142228Y6924286D01*
X3153912Y6935970D01*
X3171692Y6941812D01*
X3177534Y6941812D01*
X3195314Y6935970D01*
X3207252Y6924286D01*
X3213094Y6906506D01*
X3142228Y7230356D02*
G01*
X3201156Y7230356D01*
X3207252Y7177270D01*
X3201156Y7183112D01*
X3183630Y7189208D01*
X3165850Y7189208D01*
X3148070Y7183112D01*
X3136386Y7171428D01*
X3130290Y7153648D01*
X3130290Y7141964D01*
X3136386Y7124184D01*
X3148070Y7112246D01*
X3165850Y7106404D01*
X3183630Y7106404D01*
X3201156Y7112246D01*
X3207252Y7118088D01*
X3213094Y7130026D01*
X3153912Y7484358D02*
G01*
X3213094Y7401808D01*
X3124448Y7401808D01*
X3153912Y7484358D02*
G01*
X3153912Y7360406D01*
X3303981Y8445520D02*
G01*
X3303981Y8451430D01*
X3298070Y8463246D01*
X3292162Y8469157D01*
X3280343Y8475065D01*
X3256706Y8475065D01*
X3244890Y8469157D01*
X3238980Y8463246D01*
X3233072Y8451430D01*
X3233072Y8439612D01*
X3238980Y8427793D01*
X3250798Y8410067D01*
X3309889Y8350976D01*
X3227161Y8350976D01*
X3097161Y8475065D02*
G01*
X3097161Y8350976D01*
X3097161Y8475065D02*
G01*
X3043981Y8475065D01*
X3026252Y8469157D01*
X3020344Y8463246D01*
X3014436Y8451430D01*
X3014436Y8433701D01*
X3020344Y8421885D01*
X3026252Y8415975D01*
X3043981Y8410067D01*
X3097161Y8410067D01*
X2975434Y8475065D02*
G01*
X2975434Y8350976D01*
X2936435Y8433701D02*
G01*
X2936435Y8374611D01*
X2930527Y8356884D01*
X2918708Y8350976D01*
X2900979Y8350976D01*
X2889163Y8356884D01*
X2871434Y8374611D01*
X2871434Y8433701D02*
G01*
X2871434Y8350976D01*
X2761526Y8433701D02*
G01*
X2761526Y8339157D01*
X2767436Y8321431D01*
X2773344Y8315520D01*
X2785163Y8309612D01*
X2802890Y8309612D01*
X2814708Y8315520D01*
X2761526Y8415975D02*
G01*
X2773344Y8427793D01*
X2785163Y8433701D01*
X2802890Y8433701D01*
X2814708Y8427793D01*
X2826527Y8415975D01*
X2832435Y8398248D01*
X2832435Y8386429D01*
X2826527Y8368703D01*
X2814708Y8356884D01*
X2802890Y8350976D01*
X2785163Y8350976D01*
X2773344Y8356884D01*
X2761526Y8368703D01*
X4368782Y4423653D02*
G01*
X4368782Y4299704D01*
X4368782Y4423653D02*
G01*
X4285978Y4299704D01*
X4285978Y4423653D02*
G01*
X4285978Y4299704D01*
X4158472Y4394189D02*
G01*
X4164312Y4406127D01*
X4176252Y4417811D01*
X4187936Y4423653D01*
X4211558Y4423653D01*
X4223494Y4417811D01*
X4235178Y4406127D01*
X4241274Y4394189D01*
X4247118Y4376412D01*
X4247118Y4346945D01*
X4241274Y4329165D01*
X4235178Y4317481D01*
X4223494Y4305546D01*
X4211558Y4299704D01*
X4187936Y4299704D01*
X4176252Y4305546D01*
X4164312Y4317481D01*
X4158472Y4329165D01*
X4280138Y4648194D02*
G01*
X4285978Y4660132D01*
X4297918Y4671816D01*
X4309602Y4677658D01*
X4333224Y4677658D01*
X4345160Y4671816D01*
X4356844Y4660132D01*
X4362942Y4648194D01*
X4368782Y4630417D01*
X4368782Y4600950D01*
X4362942Y4583170D01*
X4356844Y4571486D01*
X4345160Y4559551D01*
X4333224Y4553709D01*
X4309602Y4553709D01*
X4297918Y4559551D01*
X4285978Y4571486D01*
X4280138Y4583170D01*
X4280138Y4600950D01*
X4309602Y4600950D02*
G01*
X4280138Y4600950D01*
X4241274Y4677658D02*
G01*
X4241274Y4553709D01*
X4241274Y4677658D02*
G01*
X4158472Y4553709D01*
X4158472Y4677658D02*
G01*
X4158472Y4553709D01*
X4119356Y4677658D02*
G01*
X4119356Y4553709D01*
X4119356Y4677658D02*
G01*
X4077954Y4677658D01*
X4060426Y4671816D01*
X4048490Y4660132D01*
X4042646Y4648194D01*
X4036806Y4630417D01*
X4036806Y4600950D01*
X4042646Y4583170D01*
X4048490Y4571486D01*
X4060426Y4559551D01*
X4077954Y4553709D01*
X4119356Y4553709D01*
X4368782Y4908031D02*
G01*
X4356844Y4914127D01*
X4339320Y4931653D01*
X4339320Y4807704D01*
X4294360Y4902189D02*
G01*
X4294360Y4908031D01*
X4288520Y4919969D01*
X4282424Y4925811D01*
X4270740Y4931653D01*
X4247118Y4931653D01*
X4235178Y4925811D01*
X4229338Y4919969D01*
X4223494Y4908031D01*
X4223494Y4896347D01*
X4229338Y4884412D01*
X4241274Y4866886D01*
X4300204Y4807704D01*
X4217398Y4807704D01*
X4368782Y5162034D02*
G01*
X4356844Y5168130D01*
X4339320Y5185656D01*
X4339320Y5061706D01*
X4288520Y5185656D02*
G01*
X4223494Y5185656D01*
X4258802Y5138414D01*
X4241274Y5138414D01*
X4229338Y5132572D01*
X4223494Y5126730D01*
X4217398Y5108948D01*
X4217398Y5097264D01*
X4223494Y5079484D01*
X4235178Y5067548D01*
X4252958Y5061706D01*
X4270740Y5061706D01*
X4288520Y5067548D01*
X4294360Y5073388D01*
X4300204Y5085326D01*
X4280138Y5410192D02*
G01*
X4285978Y5422130D01*
X4297918Y5433814D01*
X4309602Y5439656D01*
X4333224Y5439656D01*
X4345160Y5433814D01*
X4356844Y5422130D01*
X4362942Y5410192D01*
X4368782Y5392414D01*
X4368782Y5362948D01*
X4362942Y5345168D01*
X4356844Y5333484D01*
X4345160Y5321548D01*
X4333224Y5315706D01*
X4309602Y5315706D01*
X4297918Y5321548D01*
X4285978Y5333484D01*
X4280138Y5345168D01*
X4280138Y5362948D01*
X4309602Y5362948D02*
G01*
X4280138Y5362948D01*
X4241274Y5439656D02*
G01*
X4241274Y5315706D01*
X4241274Y5439656D02*
G01*
X4158472Y5315706D01*
X4158472Y5439656D02*
G01*
X4158472Y5315706D01*
X4119356Y5439656D02*
G01*
X4119356Y5315706D01*
X4119356Y5439656D02*
G01*
X4077954Y5439656D01*
X4060426Y5433814D01*
X4048490Y5422130D01*
X4042646Y5410192D01*
X4036806Y5392414D01*
X4036806Y5362948D01*
X4042646Y5345168D01*
X4048490Y5333484D01*
X4060426Y5321548D01*
X4077954Y5315706D01*
X4119356Y5315706D01*
X4279374Y5652505D02*
G01*
X4285218Y5634728D01*
X4296902Y5622787D01*
X4314680Y5616945D01*
X4320524Y5616945D01*
X4338304Y5622787D01*
X4350242Y5634728D01*
X4356082Y5652505D01*
X4356082Y5658347D01*
X4350242Y5676127D01*
X4338304Y5687811D01*
X4320524Y5693653D01*
X4314680Y5693653D01*
X4296902Y5687811D01*
X4285218Y5676127D01*
X4279374Y5652505D01*
X4279374Y5622787D01*
X4285218Y5593323D01*
X4296902Y5575546D01*
X4314680Y5569704D01*
X4326620Y5569704D01*
X4344144Y5575546D01*
X4350242Y5587481D01*
X4368782Y5936734D02*
G01*
X4356844Y5942830D01*
X4339320Y5960356D01*
X4339320Y5836406D01*
X4270740Y5960356D02*
G01*
X4288520Y5954514D01*
X4294360Y5942830D01*
X4294360Y5930892D01*
X4288520Y5919208D01*
X4276580Y5913114D01*
X4252958Y5907272D01*
X4235178Y5901430D01*
X4223494Y5889490D01*
X4217398Y5877806D01*
X4217398Y5860026D01*
X4223494Y5848088D01*
X4229338Y5842248D01*
X4247118Y5836406D01*
X4270740Y5836406D01*
X4288520Y5842248D01*
X4294360Y5848088D01*
X4300204Y5860026D01*
X4300204Y5877806D01*
X4294360Y5889490D01*
X4282424Y5901430D01*
X4264896Y5907272D01*
X4241274Y5913114D01*
X4229338Y5919208D01*
X4223494Y5930892D01*
X4223494Y5942830D01*
X4229338Y5954514D01*
X4247118Y5960356D01*
X4270740Y5960356D01*
X4381482Y6178031D02*
G01*
X4369544Y6184127D01*
X4352020Y6201653D01*
X4352020Y6077704D01*
X4236194Y6160505D02*
G01*
X4242038Y6142728D01*
X4253974Y6130787D01*
X4271502Y6124945D01*
X4277596Y6124945D01*
X4295124Y6130787D01*
X4307060Y6142728D01*
X4312904Y6160505D01*
X4312904Y6166347D01*
X4307060Y6184127D01*
X4295124Y6195811D01*
X4277596Y6201653D01*
X4271502Y6201653D01*
X4253974Y6195811D01*
X4242038Y6184127D01*
X4236194Y6160505D01*
X4236194Y6130787D01*
X4242038Y6101323D01*
X4253974Y6083546D01*
X4271502Y6077704D01*
X4283440Y6077704D01*
X4301220Y6083546D01*
X4307060Y6095481D01*
X4350242Y6438892D02*
G01*
X4350242Y6444734D01*
X4344144Y6456672D01*
X4338304Y6462514D01*
X4326620Y6468356D01*
X4302996Y6468356D01*
X4291058Y6462514D01*
X4285218Y6456672D01*
X4279374Y6444734D01*
X4279374Y6433050D01*
X4285218Y6421114D01*
X4296902Y6403588D01*
X4356082Y6344406D01*
X4273278Y6344406D01*
X4198858Y6468356D02*
G01*
X4216638Y6462514D01*
X4228574Y6444734D01*
X4234418Y6415272D01*
X4234418Y6397490D01*
X4228574Y6368026D01*
X4216638Y6350248D01*
X4198858Y6344406D01*
X4187174Y6344406D01*
X4169392Y6350248D01*
X4157456Y6368026D01*
X4151612Y6397490D01*
X4151612Y6415272D01*
X4157456Y6444734D01*
X4169392Y6462514D01*
X4187174Y6468356D01*
X4198858Y6468356D01*
X4375642Y6680184D02*
G01*
X4375642Y6686026D01*
X4369544Y6697964D01*
X4363704Y6703806D01*
X4352020Y6709648D01*
X4328396Y6709648D01*
X4316458Y6703806D01*
X4310618Y6697964D01*
X4304774Y6686026D01*
X4304774Y6674342D01*
X4310618Y6662407D01*
X4322302Y6644881D01*
X4381482Y6585699D01*
X4298678Y6585699D01*
X4259818Y6686026D02*
G01*
X4247878Y6692122D01*
X4230098Y6709648D01*
X4230098Y6585699D01*
X4362942Y6934189D02*
G01*
X4362942Y6940031D01*
X4356844Y6951969D01*
X4351004Y6957811D01*
X4339320Y6963653D01*
X4315696Y6963653D01*
X4303758Y6957811D01*
X4297918Y6951969D01*
X4292074Y6940031D01*
X4292074Y6928347D01*
X4297918Y6916412D01*
X4309602Y6898886D01*
X4368782Y6839704D01*
X4285978Y6839704D01*
X4241274Y6934189D02*
G01*
X4241274Y6940031D01*
X4235178Y6951969D01*
X4229338Y6957811D01*
X4217398Y6963653D01*
X4193776Y6963653D01*
X4182092Y6957811D01*
X4176252Y6951969D01*
X4170156Y6940031D01*
X4170156Y6928347D01*
X4176252Y6916412D01*
X4187936Y6898886D01*
X4247118Y6839704D01*
X4164312Y6839704D01*
X4375642Y7188189D02*
G01*
X4375642Y7194031D01*
X4369544Y7205969D01*
X4363704Y7211811D01*
X4352020Y7217653D01*
X4328396Y7217653D01*
X4316458Y7211811D01*
X4310618Y7205969D01*
X4304774Y7194031D01*
X4304774Y7182347D01*
X4310618Y7170412D01*
X4322302Y7152886D01*
X4381482Y7093704D01*
X4298678Y7093704D01*
X4247878Y7217653D02*
G01*
X4182856Y7217653D01*
X4218414Y7170412D01*
X4200636Y7170412D01*
X4188952Y7164570D01*
X4182856Y7158728D01*
X4177012Y7140945D01*
X4177012Y7129261D01*
X4182856Y7111481D01*
X4194792Y7099546D01*
X4212574Y7093704D01*
X4230098Y7093704D01*
X4247878Y7099546D01*
X4253974Y7105385D01*
X4259818Y7117323D01*
X4381482Y7435331D02*
G01*
X4369544Y7441427D01*
X4352020Y7458953D01*
X4352020Y7335004D01*
X4242038Y7458953D02*
G01*
X4301220Y7458953D01*
X4307060Y7405870D01*
X4301220Y7411712D01*
X4283440Y7417805D01*
X4265658Y7417805D01*
X4247878Y7411712D01*
X4236194Y7400028D01*
X4230098Y7382245D01*
X4230098Y7370561D01*
X4236194Y7352781D01*
X4247878Y7340846D01*
X4265658Y7335004D01*
X4283440Y7335004D01*
X4301220Y7340846D01*
X4307060Y7346685D01*
X4312904Y7358623D01*
X4381482Y7725658D02*
G01*
X4381482Y7601709D01*
X4381482Y7725658D02*
G01*
X4328396Y7725658D01*
X4310618Y7719816D01*
X4304774Y7713974D01*
X4298678Y7702036D01*
X4298678Y7690352D01*
X4304774Y7678417D01*
X4310618Y7672575D01*
X4328396Y7666733D01*
X4381482Y7666733D01*
X4340080Y7666733D02*
G01*
X4298678Y7601709D01*
X4259818Y7725658D02*
G01*
X4177012Y7601709D01*
X4177012Y7725658D02*
G01*
X4259818Y7601709D01*
X4352780Y7979656D02*
G01*
X4352780Y7855706D01*
X4394182Y7979656D02*
G01*
X4311378Y7979656D01*
X4272518Y7979656D02*
G01*
X4189712Y7855706D01*
X4189712Y7979656D02*
G01*
X4272518Y7855706D01*
X4313425Y8166092D02*
G01*
X4319264Y8178030D01*
X4331205Y8189714D01*
X4342889Y8195556D01*
X4366511Y8195556D01*
X4378446Y8189714D01*
X4390130Y8178030D01*
X4396229Y8166092D01*
X4402068Y8148314D01*
X4402068Y8118848D01*
X4396229Y8101068D01*
X4390130Y8089384D01*
X4378446Y8077448D01*
X4366511Y8071606D01*
X4342889Y8071606D01*
X4331205Y8077448D01*
X4319264Y8089384D01*
X4313425Y8101068D01*
X4313425Y8118848D01*
X4342889Y8118848D02*
G01*
X4313425Y8118848D01*
X4274560Y8195556D02*
G01*
X4274560Y8071606D01*
X4274560Y8195556D02*
G01*
X4191759Y8071606D01*
X4191759Y8195556D02*
G01*
X4191759Y8071606D01*
X4152643Y8195556D02*
G01*
X4152643Y8071606D01*
X4152643Y8195556D02*
G01*
X4111241Y8195556D01*
X4093712Y8189714D01*
X4081777Y8178030D01*
X4075932Y8166092D01*
X4070093Y8148314D01*
X4070093Y8118848D01*
X4075932Y8101068D01*
X4081777Y8089384D01*
X4093712Y8077448D01*
X4111241Y8071606D01*
X4152643Y8071606D01*
X4681484Y8476739D02*
G01*
X4669546Y8482832D01*
X4652020Y8500358D01*
X4652020Y8376409D01*
X4521969Y8500358D02*
G01*
X4521969Y8376409D01*
X4521969Y8500358D02*
G01*
X4468629Y8500358D01*
X4451103Y8494516D01*
X4445010Y8488677D01*
X4439168Y8476739D01*
X4439168Y8459210D01*
X4445010Y8447275D01*
X4451103Y8441430D01*
X4468629Y8435591D01*
X4521969Y8435591D01*
X4400303Y8500358D02*
G01*
X4400303Y8376409D01*
X4361187Y8459210D02*
G01*
X4361187Y8400028D01*
X4355345Y8382248D01*
X4343410Y8376409D01*
X4325884Y8376409D01*
X4313946Y8382248D01*
X4296166Y8400028D01*
X4296166Y8459210D02*
G01*
X4296166Y8376409D01*
X4186184Y8459210D02*
G01*
X4186184Y8364471D01*
X4192277Y8346942D01*
X4198119Y8340846D01*
X4210060Y8335007D01*
X4227586Y8335007D01*
X4239521Y8340846D01*
X4186184Y8441430D02*
G01*
X4198119Y8453114D01*
X4210060Y8459210D01*
X4227586Y8459210D01*
X4239521Y8453114D01*
X4251208Y8441430D01*
X4257304Y8423653D01*
X4257304Y8411966D01*
X4251208Y8394189D01*
X4239521Y8382248D01*
X4227586Y8376409D01*
X4210060Y8376409D01*
X4198119Y8382248D01*
X4186184Y8394189D01*
X5905731Y8204187D02*
G01*
X5911575Y8216127D01*
X5923511Y8227806D01*
X5935195Y8233648D01*
X5958819Y8233648D01*
X5970757Y8227806D01*
X5982441Y8216127D01*
X5988537Y8204187D01*
X5994377Y8186409D01*
X5994377Y8156940D01*
X5988537Y8139160D01*
X5982441Y8127479D01*
X5970757Y8115543D01*
X5958819Y8109701D01*
X5935195Y8109701D01*
X5923511Y8115543D01*
X5911575Y8127479D01*
X5905731Y8139160D01*
X5905731Y8156940D01*
X5935195Y8156940D02*
G01*
X5905731Y8156940D01*
X5866871Y8233648D02*
G01*
X5866871Y8109701D01*
X5866871Y8233648D02*
G01*
X5784065Y8109701D01*
X5784065Y8233648D02*
G01*
X5784065Y8109701D01*
X5744949Y8233648D02*
G01*
X5744949Y8109701D01*
X5744949Y8233648D02*
G01*
X5703547Y8233648D01*
X5686023Y8227806D01*
X5674085Y8216127D01*
X5668241Y8204187D01*
X5662399Y8186409D01*
X5662399Y8156940D01*
X5668241Y8139160D01*
X5674085Y8127479D01*
X5686023Y8115543D01*
X5703547Y8109701D01*
X5744949Y8109701D01*
X5747240Y7962879D02*
G01*
X5747240Y7968721D01*
X5741144Y7980659D01*
X5735302Y7986504D01*
X5723618Y7992346D01*
X5699996Y7992346D01*
X5688058Y7986504D01*
X5682218Y7980659D01*
X5676374Y7968721D01*
X5676374Y7957037D01*
X5682218Y7945104D01*
X5693897Y7927578D01*
X5753084Y7868396D01*
X5670278Y7868396D01*
X5741144Y7725646D02*
G01*
X5676374Y7725646D01*
X5711680Y7678404D01*
X5693897Y7678404D01*
X5682218Y7672562D01*
X5676374Y7666720D01*
X5670278Y7648938D01*
X5670278Y7637254D01*
X5676374Y7619471D01*
X5688058Y7607538D01*
X5705838Y7601696D01*
X5723618Y7601696D01*
X5741144Y7607538D01*
X5747240Y7613375D01*
X5753084Y7625313D01*
X5825980Y7458948D02*
G01*
X5825980Y7334999D01*
X5867382Y7458948D02*
G01*
X5784578Y7458948D01*
X5745716Y7458948D02*
G01*
X5662914Y7334999D01*
X5662914Y7458948D02*
G01*
X5745716Y7334999D01*
X5867377Y7217658D02*
G01*
X5867377Y7093712D01*
X5867377Y7217658D02*
G01*
X5814291Y7217658D01*
X5796511Y7211816D01*
X5790671Y7205969D01*
X5784575Y7194031D01*
X5784575Y7182347D01*
X5790671Y7170420D01*
X5796511Y7164578D01*
X5814291Y7158736D01*
X5867377Y7158736D01*
X5825975Y7158736D02*
G01*
X5784575Y7093712D01*
X5745711Y7217658D02*
G01*
X5662909Y7093712D01*
X5662909Y7217658D02*
G01*
X5745711Y7093712D01*
X5816577Y6952726D02*
G01*
X5804641Y6958817D01*
X5787113Y6976343D01*
X5787113Y6852399D01*
X5677131Y6976343D02*
G01*
X5736313Y6976343D01*
X5742157Y6923265D01*
X5736313Y6929107D01*
X5718535Y6935200D01*
X5700755Y6935200D01*
X5682975Y6929107D01*
X5671291Y6917423D01*
X5665193Y6899635D01*
X5665193Y6887951D01*
X5671291Y6870176D01*
X5682975Y6858241D01*
X5700755Y6852399D01*
X5718535Y6852399D01*
X5736313Y6858241D01*
X5742157Y6864075D01*
X5747997Y6876013D01*
X5861537Y6680172D02*
G01*
X5861537Y6686014D01*
X5855441Y6697954D01*
X5849597Y6703801D01*
X5837913Y6709643D01*
X5814291Y6709643D01*
X5802355Y6703801D01*
X5796511Y6697954D01*
X5790671Y6686014D01*
X5790671Y6674324D01*
X5796511Y6662407D01*
X5808195Y6644876D01*
X5867377Y6585699D01*
X5784575Y6585699D01*
X5733775Y6709643D02*
G01*
X5668749Y6709643D01*
X5704309Y6662407D01*
X5686529Y6662407D01*
X5674845Y6656565D01*
X5668749Y6650723D01*
X5662909Y6632935D01*
X5662909Y6621251D01*
X5668749Y6603464D01*
X5680689Y6591541D01*
X5698469Y6585699D01*
X5715993Y6585699D01*
X5733775Y6591541D01*
X5739871Y6597365D01*
X5745711Y6609311D01*
X5861537Y6426184D02*
G01*
X5861537Y6432026D01*
X5855441Y6443967D01*
X5849597Y6449804D01*
X5837913Y6455646D01*
X5814291Y6455646D01*
X5802355Y6449804D01*
X5796511Y6443967D01*
X5790671Y6432026D01*
X5790671Y6420342D01*
X5796511Y6408407D01*
X5808195Y6390876D01*
X5867377Y6331699D01*
X5784575Y6331699D01*
X5739871Y6426184D02*
G01*
X5739871Y6432026D01*
X5733775Y6443967D01*
X5727931Y6449804D01*
X5715993Y6455646D01*
X5692373Y6455646D01*
X5680689Y6449804D01*
X5674845Y6443967D01*
X5668749Y6432026D01*
X5668749Y6420342D01*
X5674845Y6408407D01*
X5686529Y6390876D01*
X5745711Y6331699D01*
X5662909Y6331699D01*
X5823437Y6159492D02*
G01*
X5823437Y6165334D01*
X5817341Y6177269D01*
X5811497Y6183109D01*
X5799813Y6188951D01*
X5776191Y6188951D01*
X5764255Y6183109D01*
X5758411Y6177269D01*
X5752571Y6165334D01*
X5752571Y6153650D01*
X5758411Y6141709D01*
X5770095Y6124181D01*
X5829277Y6065001D01*
X5746475Y6065001D01*
X5707611Y6165334D02*
G01*
X5695675Y6171427D01*
X5677893Y6188951D01*
X5677893Y6065001D01*
X5861537Y5918192D02*
G01*
X5861537Y5924034D01*
X5855439Y5935969D01*
X5849597Y5941809D01*
X5837913Y5947651D01*
X5814291Y5947651D01*
X5802350Y5941809D01*
X5796511Y5935969D01*
X5790666Y5924034D01*
X5790666Y5912350D01*
X5796511Y5900409D01*
X5808195Y5882881D01*
X5867377Y5823701D01*
X5784573Y5823701D01*
X5710153Y5947651D02*
G01*
X5727931Y5941809D01*
X5739866Y5924034D01*
X5745711Y5894567D01*
X5745711Y5876785D01*
X5739866Y5847326D01*
X5727931Y5829543D01*
X5710153Y5823701D01*
X5698469Y5823701D01*
X5680687Y5829543D01*
X5668749Y5847326D01*
X5662907Y5876785D01*
X5662907Y5894567D01*
X5668749Y5924034D01*
X5680687Y5941809D01*
X5698469Y5947651D01*
X5710153Y5947651D01*
X5816577Y5670029D02*
G01*
X5804641Y5676127D01*
X5787113Y5693648D01*
X5787113Y5569701D01*
X5671291Y5652503D02*
G01*
X5677131Y5634725D01*
X5689071Y5622785D01*
X5706595Y5616940D01*
X5712691Y5616940D01*
X5730219Y5622785D01*
X5742157Y5634725D01*
X5747997Y5652503D01*
X5747997Y5658345D01*
X5742157Y5676127D01*
X5730219Y5687806D01*
X5712691Y5693648D01*
X5706595Y5693648D01*
X5689071Y5687806D01*
X5677131Y5676127D01*
X5671291Y5652503D01*
X5671291Y5622785D01*
X5677131Y5593318D01*
X5689071Y5575543D01*
X5706595Y5569701D01*
X5718535Y5569701D01*
X5736313Y5575543D01*
X5742157Y5587479D01*
X5816577Y5416019D02*
G01*
X5804639Y5422115D01*
X5787113Y5439646D01*
X5787113Y5315701D01*
X5718535Y5439646D02*
G01*
X5736313Y5433804D01*
X5742155Y5422115D01*
X5742155Y5410177D01*
X5736313Y5398503D01*
X5724375Y5392409D01*
X5700750Y5386567D01*
X5682973Y5380725D01*
X5671289Y5368785D01*
X5665193Y5357096D01*
X5665193Y5339313D01*
X5671289Y5327373D01*
X5677131Y5321543D01*
X5694911Y5315701D01*
X5718535Y5315701D01*
X5736313Y5321543D01*
X5742155Y5327373D01*
X5747997Y5339313D01*
X5747997Y5357096D01*
X5742155Y5368785D01*
X5730219Y5380725D01*
X5712691Y5386567D01*
X5689066Y5392409D01*
X5677131Y5398503D01*
X5671289Y5410177D01*
X5671289Y5422115D01*
X5677131Y5433804D01*
X5694911Y5439646D01*
X5718535Y5439646D01*
X5676371Y5144503D02*
G01*
X5682211Y5126725D01*
X5693895Y5114785D01*
X5711675Y5108943D01*
X5717519Y5108943D01*
X5735297Y5114785D01*
X5747237Y5126725D01*
X5753077Y5144503D01*
X5753077Y5150342D01*
X5747237Y5168122D01*
X5735297Y5179809D01*
X5717519Y5185651D01*
X5711675Y5185651D01*
X5693895Y5179809D01*
X5682211Y5168122D01*
X5676371Y5144503D01*
X5676371Y5114785D01*
X5682211Y5085318D01*
X5693895Y5067543D01*
X5711675Y5061701D01*
X5723613Y5061701D01*
X5741141Y5067543D01*
X5747237Y5079476D01*
X5918431Y4914889D02*
G01*
X5924275Y4926825D01*
X5936211Y4938506D01*
X5947895Y4944348D01*
X5971519Y4944348D01*
X5983457Y4938506D01*
X5995141Y4926825D01*
X6001237Y4914889D01*
X6007077Y4897107D01*
X6007077Y4867640D01*
X6001237Y4849865D01*
X5995141Y4838181D01*
X5983457Y4826241D01*
X5971519Y4820399D01*
X5947895Y4820399D01*
X5936211Y4826241D01*
X5924275Y4838181D01*
X5918431Y4849865D01*
X5918431Y4867640D01*
X5947895Y4867640D02*
G01*
X5918431Y4867640D01*
X5879571Y4944348D02*
G01*
X5879571Y4820399D01*
X5879571Y4944348D02*
G01*
X5796765Y4820399D01*
X5796765Y4944348D02*
G01*
X5796765Y4820399D01*
X5757649Y4944348D02*
G01*
X5757649Y4820399D01*
X5757649Y4944348D02*
G01*
X5716247Y4944348D01*
X5698723Y4938506D01*
X5686785Y4926825D01*
X5680941Y4914889D01*
X5675099Y4897107D01*
X5675099Y4867640D01*
X5680941Y4849865D01*
X5686785Y4838181D01*
X5698723Y4826241D01*
X5716247Y4820399D01*
X5757649Y4820399D01*
X5809218Y4690346D02*
G01*
X5868144Y4690346D01*
X5874240Y4637265D01*
X5868144Y4643107D01*
X5850620Y4649200D01*
X5832840Y4649200D01*
X5815058Y4643107D01*
X5803374Y4631423D01*
X5797278Y4613638D01*
X5797278Y4601954D01*
X5803374Y4584176D01*
X5815058Y4572241D01*
X5832840Y4566399D01*
X5850620Y4566399D01*
X5868144Y4572241D01*
X5874240Y4578083D01*
X5880084Y4590016D01*
X5758418Y4690346D02*
G01*
X5711172Y4566399D01*
X5663928Y4690346D02*
G01*
X5711172Y4566399D01*
X5437578Y8483635D02*
G01*
X5437578Y8489546D01*
X5431668Y8501362D01*
X5425760Y8507272D01*
X5413941Y8513180D01*
X5390304Y8513180D01*
X5378485Y8507272D01*
X5372577Y8501362D01*
X5366669Y8489546D01*
X5366669Y8477727D01*
X5372577Y8465908D01*
X5384396Y8448182D01*
X5443486Y8389091D01*
X5360758Y8389091D01*
X5230759Y8513180D02*
G01*
X5230759Y8389091D01*
X5230759Y8513180D02*
G01*
X5177579Y8513180D01*
X5159849Y8507272D01*
X5153941Y8501362D01*
X5148033Y8489546D01*
X5148033Y8471816D01*
X5153941Y8460000D01*
X5159849Y8454090D01*
X5177579Y8448182D01*
X5230759Y8448182D01*
X5109032Y8513180D02*
G01*
X5109032Y8389091D01*
X5070033Y8471816D02*
G01*
X5070033Y8412726D01*
X5064125Y8394999D01*
X5052306Y8389091D01*
X5034577Y8389091D01*
X5022761Y8394999D01*
X5005031Y8412726D01*
X5005031Y8471816D02*
G01*
X5005031Y8389091D01*
X4895123Y8471816D02*
G01*
X4895123Y8377273D01*
X4901034Y8359546D01*
X4906942Y8353635D01*
X4918760Y8347727D01*
X4936487Y8347727D01*
X4948306Y8353635D01*
X4895123Y8454090D02*
G01*
X4906942Y8465908D01*
X4918760Y8471816D01*
X4936487Y8471816D01*
X4948306Y8465908D01*
X4960124Y8454090D01*
X4966032Y8436363D01*
X4966032Y8424545D01*
X4960124Y8406818D01*
X4948306Y8394999D01*
X4936487Y8389091D01*
X4918760Y8389091D01*
X4906942Y8394999D01*
X4895123Y8406818D01*
X5880077Y4436346D02*
G01*
X5880077Y4312399D01*
X5880077Y4436346D02*
G01*
X5797275Y4312399D01*
X5797275Y4436346D02*
G01*
X5797275Y4312399D01*
X5669765Y4406884D02*
G01*
X5675609Y4418825D01*
X5687545Y4430504D01*
X5699229Y4436346D01*
X5722853Y4436346D01*
X5734791Y4430504D01*
X5746475Y4418825D01*
X5752571Y4406884D01*
X5758411Y4389107D01*
X5758411Y4359638D01*
X5752571Y4341858D01*
X5746475Y4330176D01*
X5734791Y4318241D01*
X5722853Y4312399D01*
X5699229Y4312399D01*
X5687545Y4318241D01*
X5675609Y4330176D01*
X5669765Y4341858D01*
X5494286Y4093573D02*
G01*
X5494286Y3969484D01*
X5494286Y4093573D02*
G01*
X5417469Y4093573D01*
X5494286Y4034482D02*
G01*
X5447014Y4034482D01*
X5494286Y3969484D02*
G01*
X5417469Y3969484D01*
X5295742Y4075846D02*
G01*
X5307558Y4087665D01*
X5325287Y4093573D01*
X5348922Y4093573D01*
X5366651Y4087665D01*
X5378467Y4075846D01*
X5378467Y4064027D01*
X5372559Y4052209D01*
X5366651Y4046301D01*
X5354833Y4040393D01*
X5319377Y4028574D01*
X5307558Y4022664D01*
X5301650Y4016755D01*
X5295742Y4004937D01*
X5295742Y3987210D01*
X5307558Y3975392D01*
X5325287Y3969484D01*
X5348922Y3969484D01*
X5366651Y3975392D01*
X5378467Y3987210D01*
X5256740Y4093573D02*
G01*
X5256740Y3969484D01*
X5256740Y4093573D02*
G01*
X5203560Y4093573D01*
X5185831Y4087665D01*
X5179923Y4081754D01*
X5174015Y4069938D01*
X5174015Y4052209D01*
X5179923Y4040393D01*
X5185831Y4034482D01*
X5203560Y4028574D01*
X5256740Y4028574D01*
X5123197Y4093573D02*
G01*
X5058196Y4093573D01*
X5093649Y4046301D01*
X5075923Y4046301D01*
X5064104Y4040393D01*
X5058196Y4034482D01*
X5052288Y4016755D01*
X5052288Y4004937D01*
X5058196Y3987210D01*
X5070015Y3975392D01*
X5087741Y3969484D01*
X5105468Y3969484D01*
X5123197Y3975392D01*
X5129105Y3981302D01*
X5135013Y3993118D01*
X5007378Y4064027D02*
G01*
X5007378Y4069938D01*
X5001468Y4081754D01*
X4995560Y4087665D01*
X4983741Y4093573D01*
X4960106Y4093573D01*
X4948288Y4087665D01*
X4942377Y4081754D01*
X4936469Y4069938D01*
X4936469Y4058119D01*
X4942377Y4046301D01*
X4954196Y4028574D01*
X5013286Y3969484D01*
X4930561Y3969484D01*
X4891559Y4022664D02*
G01*
X4785197Y4022664D01*
X4657559Y4064027D02*
G01*
X4663470Y4075846D01*
X4675289Y4087665D01*
X4687107Y4093573D01*
X4710742Y4093573D01*
X4722561Y4087665D01*
X4734379Y4075846D01*
X4740287Y4064027D01*
X4746198Y4046301D01*
X4746198Y4016755D01*
X4740287Y3999029D01*
X4734379Y3987210D01*
X4722561Y3975392D01*
X4710742Y3969484D01*
X4687107Y3969484D01*
X4675289Y3975392D01*
X4663470Y3987210D01*
X4657559Y3999029D01*
X4547651Y4075846D02*
G01*
X4553562Y4087665D01*
X4571288Y4093573D01*
X4583107Y4093573D01*
X4600834Y4087665D01*
X4612652Y4069938D01*
X4618560Y4040393D01*
X4618560Y4010847D01*
X4612652Y3987210D01*
X4600834Y3975392D01*
X4583107Y3969484D01*
X4577196Y3969484D01*
X4559470Y3975392D01*
X4547651Y3987210D01*
X4541743Y4004937D01*
X4541743Y4010847D01*
X4547651Y4028574D01*
X4559470Y4040393D01*
X4577196Y4046301D01*
X4583107Y4046301D01*
X4600834Y4040393D01*
X4612652Y4028574D01*
X4618560Y4010847D01*
X4411743Y4093573D02*
G01*
X4411743Y3969484D01*
X4411743Y4093573D02*
G01*
X4370379Y4093573D01*
X4352653Y4087665D01*
X4340834Y4075846D01*
X4334926Y4064027D01*
X4329015Y4046301D01*
X4329015Y4016755D01*
X4334926Y3999029D01*
X4340834Y3987210D01*
X4352653Y3975392D01*
X4370379Y3969484D01*
X4411743Y3969484D01*
X4290016Y4016755D02*
G01*
X4219107Y4016755D01*
X4219107Y4028574D01*
X4225015Y4040393D01*
X4230926Y4046301D01*
X4242744Y4052209D01*
X4260471Y4052209D01*
X4272290Y4046301D01*
X4284106Y4034482D01*
X4290016Y4016755D01*
X4290016Y4004937D01*
X4284106Y3987210D01*
X4272290Y3975392D01*
X4260471Y3969484D01*
X4242744Y3969484D01*
X4230926Y3975392D01*
X4219107Y3987210D01*
X4180108Y4052209D02*
G01*
X4144652Y3969484D01*
X4109199Y4052209D02*
G01*
X4144652Y3969484D01*
X4070197Y4093573D02*
G01*
X4070197Y3969484D01*
X3987472Y4093573D02*
G01*
X4070197Y4010847D01*
X4040652Y4040393D02*
G01*
X3987472Y3969484D01*
X3948470Y4093573D02*
G01*
X3942562Y4087665D01*
X3936654Y4093573D01*
X3942562Y4099483D01*
X3948470Y4093573D01*
X3942562Y4052209D02*
G01*
X3942562Y3969484D01*
X3879926Y4093573D02*
G01*
X3879926Y3993118D01*
X3874018Y3975392D01*
X3862199Y3969484D01*
X3850380Y3969484D01*
X3897652Y4052209D02*
G01*
X3856288Y4052209D01*
X3621024Y7629890D02*
G01*
X3703065Y7629890D01*
X3661918Y7670784D02*
G01*
X3661918Y7588996D01*
X1471676Y5095478D02*
G01*
X1389634Y5095478D01*
X1430781Y5054584D02*
G01*
X1430781Y5136372D01*
X37477Y4737089D02*
G01*
X-86611Y4737089D01*
X37477Y4737089D02*
G01*
X37477Y4778453D01*
X31569Y4796180D01*
X19751Y4807999D01*
X7932Y4813907D01*
X-9794Y4819817D01*
X-39339Y4819817D01*
X-57066Y4813907D01*
X-68884Y4807999D01*
X-80703Y4796180D01*
X-86611Y4778453D01*
X-86611Y4737089D01*
X37477Y4858816D02*
G01*
X-86611Y4858816D01*
X37477Y4897815D02*
G01*
X-86611Y4897815D01*
X37477Y4897815D02*
G01*
X-86611Y4980543D01*
X37477Y4980543D02*
G01*
X-86611Y4980543D01*
X291477Y4807999D02*
G01*
X291477Y4748908D01*
X238297Y4742997D01*
X244205Y4748908D01*
X250113Y4766635D01*
X250113Y4784361D01*
X244205Y4802088D01*
X232387Y4813907D01*
X214660Y4819817D01*
X202841Y4819817D01*
X185115Y4813907D01*
X173296Y4802088D01*
X167388Y4784361D01*
X167388Y4766635D01*
X173296Y4748908D01*
X179207Y4742997D01*
X191023Y4737089D01*
X291477Y4858816D02*
G01*
X167388Y4906088D01*
X291477Y4953363D02*
G01*
X167388Y4906088D01*
X554032Y4800325D02*
G01*
X565851Y4794417D01*
X577669Y4782599D01*
X583577Y4770780D01*
X583577Y4747143D01*
X577669Y4735327D01*
X565851Y4723508D01*
X554032Y4717597D01*
X536305Y4711689D01*
X506760Y4711689D01*
X489033Y4717597D01*
X477215Y4723508D01*
X465396Y4735327D01*
X459488Y4747143D01*
X459488Y4770780D01*
X465396Y4782599D01*
X477215Y4794417D01*
X489033Y4800325D01*
X506760Y4800325D01*
X506760Y4770780D02*
G01*
X506760Y4800325D01*
X583577Y4839324D02*
G01*
X459488Y4839324D01*
X583577Y4839324D02*
G01*
X459488Y4922052D01*
X583577Y4922052D02*
G01*
X459488Y4922052D01*
X583577Y4961051D02*
G01*
X459488Y4961051D01*
X583577Y4961051D02*
G01*
X583577Y5002415D01*
X577669Y5020144D01*
X565851Y5031960D01*
X554032Y5037871D01*
X536305Y5043779D01*
X506760Y5043779D01*
X489033Y5037871D01*
X477215Y5031960D01*
X465396Y5020144D01*
X459488Y5002415D01*
X459488Y4961051D01*
X58696Y3932811D02*
G01*
X88242Y4056900D01*
X117787Y3932811D02*
G01*
X88242Y4056900D01*
X117787Y3932811D02*
G01*
X147332Y4056900D01*
X176877Y3932811D02*
G01*
X147332Y4056900D01*
X298604Y3950538D02*
G01*
X286786Y3938719D01*
X269059Y3932811D01*
X245424Y3932811D01*
X227695Y3938719D01*
X215877Y3950538D01*
X215877Y3962356D01*
X221787Y3974175D01*
X227695Y3980083D01*
X239514Y3985991D01*
X274970Y3997810D01*
X286786Y4003720D01*
X292696Y4009628D01*
X298604Y4021447D01*
X298604Y4039174D01*
X286786Y4050992D01*
X269059Y4056900D01*
X245424Y4056900D01*
X227695Y4050992D01*
X215877Y4039174D01*
X343514Y3962356D02*
G01*
X343514Y3956446D01*
X349422Y3944630D01*
X355333Y3938719D01*
X367151Y3932811D01*
X390786Y3932811D01*
X402605Y3938719D01*
X408513Y3944630D01*
X414423Y3956446D01*
X414423Y3968264D01*
X408513Y3980083D01*
X396697Y3997810D01*
X337606Y4056900D01*
X420331Y4056900D01*
X488878Y3932811D02*
G01*
X471149Y3938719D01*
X465241Y3950538D01*
X465241Y3962356D01*
X471149Y3974175D01*
X482968Y3980083D01*
X506605Y3985991D01*
X524332Y3991902D01*
X536150Y4003720D01*
X542058Y4015536D01*
X542058Y4033265D01*
X536150Y4045082D01*
X530240Y4050992D01*
X512513Y4056900D01*
X488878Y4056900D01*
X471149Y4050992D01*
X465241Y4045082D01*
X459333Y4033265D01*
X459333Y4015536D01*
X465241Y4003720D01*
X477060Y3991902D01*
X494786Y3985991D01*
X518424Y3980083D01*
X530240Y3974175D01*
X536150Y3962356D01*
X536150Y3950538D01*
X530240Y3938719D01*
X512513Y3932811D01*
X488878Y3932811D01*
X581060Y3956446D02*
G01*
X592876Y3950538D01*
X610605Y3932811D01*
X610605Y4056900D01*
X655513Y3962356D02*
G01*
X655513Y3956446D01*
X661423Y3944630D01*
X667331Y3938719D01*
X679150Y3932811D01*
X702787Y3932811D01*
X714603Y3938719D01*
X720514Y3944630D01*
X726422Y3956446D01*
X726422Y3968264D01*
X720514Y3980083D01*
X708695Y3997810D01*
X649604Y4056900D01*
X732332Y4056900D01*
X771331Y3932811D02*
G01*
X771331Y4056900D01*
X771331Y3932811D02*
G01*
X824514Y3932811D01*
X842241Y3938719D01*
X848149Y3944630D01*
X854059Y3956446D01*
X854059Y3968264D01*
X848149Y3980083D01*
X842241Y3985991D01*
X824514Y3991902D01*
X771331Y3991902D02*
G01*
X824514Y3991902D01*
X842241Y3997810D01*
X848149Y4003720D01*
X854059Y4015536D01*
X854059Y4033265D01*
X848149Y4045082D01*
X842241Y4050992D01*
X824514Y4056900D01*
X771331Y4056900D01*
X3954325Y6303368D02*
G01*
X3954325Y6179278D01*
X3995689Y6303368D02*
G01*
X3912961Y6303368D01*
X3803053Y6262004D02*
G01*
X3803053Y6179278D01*
X3803053Y6244277D02*
G01*
X3814871Y6256096D01*
X3826690Y6262004D01*
X3844416Y6262004D01*
X3856235Y6256096D01*
X3868054Y6244277D01*
X3873962Y6226550D01*
X3873962Y6214732D01*
X3868054Y6197005D01*
X3856235Y6185187D01*
X3844416Y6179278D01*
X3826690Y6179278D01*
X3814871Y6185187D01*
X3803053Y6197005D01*
X3699052Y6244277D02*
G01*
X3704963Y6256096D01*
X3722690Y6262004D01*
X3740416Y6262004D01*
X3758143Y6256096D01*
X3764053Y6244277D01*
X3758143Y6232458D01*
X3746327Y6226550D01*
X3716779Y6220642D01*
X3704963Y6214732D01*
X3699052Y6202913D01*
X3699052Y6197005D01*
X3704963Y6185187D01*
X3722690Y6179278D01*
X3740416Y6179278D01*
X3758143Y6185187D01*
X3764053Y6197005D01*
X3642326Y6303368D02*
G01*
X3642326Y6202913D01*
X3636416Y6185187D01*
X3624600Y6179278D01*
X3612781Y6179278D01*
X3660053Y6262004D02*
G01*
X3618689Y6262004D01*
X3573779Y6226550D02*
G01*
X3502870Y6226550D01*
X3502870Y6238369D01*
X3508781Y6250188D01*
X3514689Y6256096D01*
X3526508Y6262004D01*
X3544234Y6262004D01*
X3556053Y6256096D01*
X3567871Y6244277D01*
X3573779Y6226550D01*
X3573779Y6214732D01*
X3567871Y6197005D01*
X3556053Y6185187D01*
X3544234Y6179278D01*
X3526508Y6179278D01*
X3514689Y6185187D01*
X3502870Y6197005D01*
X3463871Y6262004D02*
G01*
X3463871Y6179278D01*
X3463871Y6226550D02*
G01*
X3457963Y6244277D01*
X3446145Y6256096D01*
X3434326Y6262004D01*
X3416599Y6262004D01*
X553994Y5630270D02*
G01*
X506722Y5506181D01*
X459447Y5630270D02*
G01*
X506722Y5506181D01*
X420448Y5630270D02*
G01*
X420448Y5506181D01*
X420448Y5506181D02*
G01*
X349539Y5506181D01*
X239631Y5612544D02*
G01*
X245539Y5624362D01*
X263268Y5630270D01*
X275084Y5630270D01*
X292813Y5624362D01*
X304632Y5606635D01*
X310540Y5577090D01*
X310540Y5547545D01*
X304632Y5523908D01*
X292813Y5512089D01*
X275084Y5506181D01*
X269176Y5506181D01*
X251449Y5512089D01*
X239631Y5523908D01*
X233723Y5541634D01*
X233723Y5547545D01*
X239631Y5565272D01*
X251449Y5577090D01*
X269176Y5582998D01*
X275084Y5582998D01*
X292813Y5577090D01*
X304632Y5565272D01*
X310540Y5547545D01*
X194721Y5606635D02*
G01*
X182905Y5612544D01*
X165176Y5630270D01*
X165176Y5506181D01*
X96631Y5630270D02*
G01*
X114358Y5624362D01*
X120269Y5612544D01*
X120269Y5600725D01*
X114358Y5588906D01*
X102539Y5582998D01*
X78905Y5577090D01*
X61175Y5571180D01*
X49359Y5559361D01*
X43449Y5547545D01*
X43449Y5529816D01*
X49359Y5518000D01*
X55267Y5512089D01*
X72994Y5506181D01*
X96631Y5506181D01*
X114358Y5512089D01*
X120269Y5518000D01*
X126177Y5529816D01*
X126177Y5547545D01*
X120269Y5559361D01*
X108450Y5571180D01*
X90723Y5577090D01*
X67086Y5582998D01*
X55267Y5588906D01*
X49359Y5600725D01*
X49359Y5612544D01*
X55267Y5624362D01*
X72994Y5630270D01*
X96631Y5630270D01*
X-31005Y5630270D02*
G01*
X-13276Y5624362D01*
X-1457Y5606635D01*
X4450Y5577090D01*
X4450Y5559361D01*
X-1457Y5529816D01*
X-13276Y5512089D01*
X-31005Y5506181D01*
X-42821Y5506181D01*
X-60551Y5512089D01*
X-72367Y5529816D01*
X-78277Y5559361D01*
X-78277Y5577090D01*
X-72367Y5606635D01*
X-60551Y5624362D01*
X-42821Y5630270D01*
X-31005Y5630270D01*
X110378Y5909670D02*
G01*
X45379Y5909670D01*
X80832Y5862398D01*
X63106Y5862398D01*
X51287Y5856490D01*
X45379Y5850580D01*
X39469Y5832853D01*
X39469Y5821034D01*
X45379Y5803308D01*
X57198Y5791489D01*
X74924Y5785581D01*
X92651Y5785581D01*
X110378Y5791489D01*
X116288Y5797400D01*
X122196Y5809216D01*
X-5438Y5815126D02*
G01*
X469Y5809216D01*
X-5438Y5803308D01*
X-11348Y5809216D01*
X-5438Y5815126D01*
X-62166Y5909670D02*
G01*
X-127165Y5909670D01*
X-91711Y5862398D01*
X-109438Y5862398D01*
X-121257Y5856490D01*
X-127165Y5850580D01*
X-133075Y5832853D01*
X-133075Y5821034D01*
X-127165Y5803308D01*
X-115349Y5791489D01*
X-97619Y5785581D01*
X-79893Y5785581D01*
X-62166Y5791489D01*
X-56258Y5797400D01*
X-50347Y5809216D01*
X-172074Y5909670D02*
G01*
X-219346Y5785581D01*
X-266621Y5909670D02*
G01*
X-219346Y5785581D01*
X33561Y6134122D02*
G01*
X39469Y6145941D01*
X51287Y6157760D01*
X63106Y6163668D01*
X86743Y6163668D01*
X98559Y6157760D01*
X110378Y6145941D01*
X116288Y6134122D01*
X122196Y6116396D01*
X122196Y6086850D01*
X116288Y6069124D01*
X110378Y6057305D01*
X98559Y6045487D01*
X86743Y6039578D01*
X63106Y6039578D01*
X51287Y6045487D01*
X39469Y6057305D01*
X33561Y6069124D01*
X33561Y6086850D01*
X63106Y6086850D02*
G01*
X33561Y6086850D01*
X-5438Y6163668D02*
G01*
X-5438Y6039578D01*
X-5438Y6163668D02*
G01*
X-88165Y6039578D01*
X-88165Y6163668D02*
G01*
X-88165Y6039578D01*
X-127165Y6163668D02*
G01*
X-127165Y6039578D01*
X-127165Y6163668D02*
G01*
X-168529Y6163668D01*
X-186258Y6157760D01*
X-198074Y6145941D01*
X-203984Y6134122D01*
X-209892Y6116396D01*
X-209892Y6086850D01*
X-203984Y6069124D01*
X-198074Y6057305D01*
X-186258Y6045487D01*
X-168529Y6039578D01*
X-127165Y6039578D01*
X826866Y6412641D02*
G01*
X838685Y6424460D01*
X856411Y6430368D01*
X880049Y6430368D01*
X897775Y6424460D01*
X909594Y6412641D01*
X909594Y6400822D01*
X903686Y6389004D01*
X897775Y6383096D01*
X885957Y6377188D01*
X850503Y6365369D01*
X838685Y6359458D01*
X832777Y6353550D01*
X826866Y6341732D01*
X826866Y6324005D01*
X838685Y6312187D01*
X856411Y6306278D01*
X880049Y6306278D01*
X897775Y6312187D01*
X909594Y6324005D01*
X787867Y6430368D02*
G01*
X787867Y6306278D01*
X787867Y6430368D02*
G01*
X746503Y6430368D01*
X728776Y6424460D01*
X716958Y6412641D01*
X711050Y6400822D01*
X705139Y6383096D01*
X705139Y6353550D01*
X711050Y6335824D01*
X716958Y6324005D01*
X728776Y6312187D01*
X746503Y6306278D01*
X787867Y6306278D01*
X618868Y6430368D02*
G01*
X666140Y6306278D01*
X618868Y6430368D02*
G01*
X571593Y6306278D01*
X648413Y6347642D02*
G01*
X589323Y6347642D01*
X26769Y6666641D02*
G01*
X38587Y6678460D01*
X56314Y6684368D01*
X79951Y6684368D01*
X97678Y6678460D01*
X109496Y6666641D01*
X109496Y6654822D01*
X103588Y6643004D01*
X97678Y6637096D01*
X85859Y6631188D01*
X50406Y6619369D01*
X38587Y6613458D01*
X32679Y6607550D01*
X26769Y6595732D01*
X26769Y6578005D01*
X38587Y6566187D01*
X56314Y6560278D01*
X79951Y6560278D01*
X97678Y6566187D01*
X109496Y6578005D01*
X-100865Y6654822D02*
G01*
X-94957Y6666641D01*
X-83139Y6678460D01*
X-71320Y6684368D01*
X-47683Y6684368D01*
X-35867Y6678460D01*
X-24048Y6666641D01*
X-18138Y6654822D01*
X-12230Y6637096D01*
X-12230Y6607550D01*
X-18138Y6589824D01*
X-24048Y6578005D01*
X-35867Y6566187D01*
X-47683Y6560278D01*
X-71320Y6560278D01*
X-83139Y6566187D01*
X-94957Y6578005D01*
X-100865Y6589824D01*
X-139865Y6684368D02*
G01*
X-139865Y6560278D01*
X-139865Y6560278D02*
G01*
X-210774Y6560278D01*
X134896Y6963768D02*
G01*
X134896Y6839678D01*
X95897Y6963768D02*
G01*
X95897Y6839678D01*
X95897Y6963768D02*
G01*
X13169Y6839678D01*
X13169Y6963768D02*
G01*
X13169Y6839678D01*
X-67193Y6963768D02*
G01*
X-67193Y6839678D01*
X-25829Y6963768D02*
G01*
X-108557Y6963768D01*
X39469Y7174641D02*
G01*
X51287Y7186460D01*
X69014Y7192368D01*
X92651Y7192368D01*
X110378Y7186460D01*
X122196Y7174641D01*
X122196Y7162822D01*
X116288Y7151004D01*
X110378Y7145096D01*
X98559Y7139188D01*
X63106Y7127369D01*
X51287Y7121458D01*
X45379Y7115550D01*
X39469Y7103732D01*
X39469Y7086005D01*
X51287Y7074187D01*
X69014Y7068278D01*
X92651Y7068278D01*
X110378Y7074187D01*
X122196Y7086005D01*
X469Y7192368D02*
G01*
X469Y7068278D01*
X-82257Y7192368D02*
G01*
X-82257Y7068278D01*
X469Y7133277D02*
G01*
X-82257Y7133277D01*
X-121257Y7192368D02*
G01*
X-121257Y7103732D01*
X-127165Y7086005D01*
X-138983Y7074187D01*
X-156712Y7068278D01*
X-168529Y7068278D01*
X-186258Y7074187D01*
X-198074Y7086005D01*
X-203984Y7103732D01*
X-203984Y7192368D01*
X-284347Y7192368D02*
G01*
X-284347Y7068278D01*
X-242984Y7192368D02*
G01*
X-325711Y7192368D01*
D11*
X5207000Y8243300D02*
G01*
X5207000Y4230100D01*
X952500Y4230100D01*
X952500Y8243300D01*
X5207000Y8243300D01*
X947694Y8470884D02*
G01*
X947694Y7454884D01*
X769894Y7454884D01*
X769894Y7454884D01*
X769894Y8470884D01*
X947694Y8470884D01*
X787400Y4152884D02*
G01*
X-228600Y4152884D01*
X-228600Y4660884D01*
X787400Y4660884D01*
X787400Y4152884D01*
X1536700Y8458184D02*
G01*
X1536700Y7442184D01*
X1358900Y7442184D01*
X1358900Y7442184D01*
X1358900Y8458184D01*
X1536700Y8458184D01*
X2095500Y3505184D02*
G01*
X1079500Y3505184D01*
X1079500Y3682984D01*
X1079500Y3682984D01*
X2095500Y3682984D01*
X2095500Y3505184D01*
X3924300Y6083284D02*
G01*
X3924300Y6083284D01*
X3492500Y6083284D01*
X3492500Y5397484D01*
X3924300Y5397484D01*
X3924300Y6083284D01*
X3924300Y6083284D01*
G75*
G01
X4064000Y7746985D02*
G03X4064000Y7746985I-254000J0D01*
G75*
G01
X1536700Y4978385D02*
G03X1536700Y4978385I-254000J0D01*
M02*
